<?xml version="1.0" encoding="UTF-8" standalone="no"?>
<svg
   width="257.17328"
   zoomAndPan="magnify"
   viewBox="0 0 192.87996 163.51478"
   height="218.01971"
   preserveAspectRatio="xMidYMid"
   version="1.0"
   id="svg458"
   sodipodi:docname="EDEN.svg"
   inkscape:version="1.2.1 (9c6d41e410, 2022-07-14)"
   xmlns:inkscape="http://www.inkscape.org/namespaces/inkscape"
   xmlns:sodipodi="http://sodipodi.sourceforge.net/DTD/sodipodi-0.dtd"
   xmlns="http://www.w3.org/2000/svg"
   xmlns:svg="http://www.w3.org/2000/svg">
  <sodipodi:namedview
     id="namedview460"
     pagecolor="#ffffff"
     bordercolor="#000000"
     borderopacity="0.25"
     inkscape:showpageshadow="2"
     inkscape:pageopacity="0.0"
     inkscape:pagecheckerboard="0"
     inkscape:deskcolor="#d1d1d1"
     showgrid="false"
     inkscape:zoom="1.8484564"
     inkscape:cx="141.73988"
     inkscape:cy="199.08503"
     inkscape:window-width="1920"
     inkscape:window-height="1009"
     inkscape:window-x="-8"
     inkscape:window-y="-8"
     inkscape:window-maximized="1"
     inkscape:current-layer="svg458" />
  <defs
     id="defs136">
    <g
       id="g2" />
    <clipPath
       id="c4469f3ad8">
      <path
         d="M 224.26953,150.05078 H 236 V 156 h -11.73047 z m 0,0"
         clip-rule="nonzero"
         id="path4" />
    </clipPath>
    <clipPath
       id="1904c51e5a">
      <path
         d="m 233,150.05078 h 12 V 156 h -12 z m 0,0"
         clip-rule="nonzero"
         id="path7" />
    </clipPath>
    <clipPath
       id="452de35560">
      <path
         d="m 234,163 h 5 v 8.05078 h -5 z m 0,0"
         clip-rule="nonzero"
         id="path10" />
    </clipPath>
    <clipPath
       id="6b437d5dd0">
      <path
         d="M 119.48828,157 H 134 v 9 h -14.51172 z m 0,0"
         clip-rule="nonzero"
         id="path13" />
    </clipPath>
    <clipPath
       id="1cc71433b0">
      <path
         d="m 135,157 h 14.48828 v 9 H 135 Z m 0,0"
         clip-rule="nonzero"
         id="path16" />
    </clipPath>
    <clipPath
       id="a6bd94de5c">
      <path
         d="m 133,140.46094 h 4 V 156 h -4 z m 0,0"
         clip-rule="nonzero"
         id="path19" />
    </clipPath>
    <clipPath
       id="eeeb8e8015">
      <path
         d="m 132,155 h 5 v 25.96094 h -5 z m 0,0"
         clip-rule="nonzero"
         id="path22" />
    </clipPath>
    <clipPath
       id="ba0684005e">
      <path
         d="M 126.71094,146 H 265 v 41 H 126.71094 Z m 0,0"
         clip-rule="nonzero"
         id="path25" />
    </clipPath>
    <clipPath
       id="288be105c0">
      <path
         d="m 194,157 h 4 v 6.14062 h -4 z m 0,0"
         clip-rule="nonzero"
         id="path28" />
    </clipPath>
    <clipPath
       id="45ac91e2e4">
      <path
         d="M 192.66016,155 H 196 v 4 h -3.33984 z m 0,0"
         clip-rule="nonzero"
         id="path31" />
    </clipPath>
    <clipPath
       id="41312572aa">
      <path
         d="m 194,154.14062 h 5 V 159 h -5 z m 0,0"
         clip-rule="nonzero"
         id="path34" />
    </clipPath>
    <clipPath
       id="21b41a45f1">
      <path
         d="m 196,155 h 4.16016 v 4 H 196 Z m 0,0"
         clip-rule="nonzero"
         id="path37" />
    </clipPath>
    <clipPath
       id="e744553127">
      <path
         d="m 197,156 h 3.16016 v 4 H 197 Z m 0,0"
         clip-rule="nonzero"
         id="path40" />
    </clipPath>
    <clipPath
       id="58a837eb12">
      <path
         d="m 241,143.28125 h 4 V 145 h -4 z m 0,0"
         clip-rule="nonzero"
         id="path43" />
    </clipPath>
    <clipPath
       id="74af426bf7">
      <path
         d="M 239.60547,145 H 241 v 3 h -1.39453 z m 0,0"
         clip-rule="nonzero"
         id="path46" />
    </clipPath>
    <clipPath
       id="b6337cb8ec">
      <path
         d="m 245,147 h 2.10547 v 2 H 245 Z m 0,0"
         clip-rule="nonzero"
         id="path49" />
    </clipPath>
    <clipPath
       id="fe59824e3f">
      <path
         d="m 240,148 h 6 v 2.03125 h -6 z m 0,0"
         clip-rule="nonzero"
         id="path52" />
    </clipPath>
    <clipPath
       id="16f109c983">
      <path
         d="M 106.82813,167.14453 H 125 V 171 h -18.17187 z m 0,0"
         clip-rule="nonzero"
         id="path55" />
    </clipPath>
    <clipPath
       id="b2b27547c4">
      <path
         d="m 120,168 h 6.32813 v 3.64453 H 120 Z m 0,0"
         clip-rule="nonzero"
         id="path58" />
    </clipPath>
    <clipPath
       id="f8e3725444">
      <path
         d="M 103.55469,155 H 122 v 3.35937 h -18.44531 z m 0,0"
         clip-rule="nonzero"
         id="path61" />
    </clipPath>
    <clipPath
       id="57afcf2ac5">
      <path
         d="m 117,154.02344 h 6 V 158 h -6 z m 0,0"
         clip-rule="nonzero"
         id="path64" />
    </clipPath>
    <clipPath
       id="f2715db1cc">
      <path
         d="m 119.48828,136.08984 h 24.75 v 14.25 h -24.75 z m 0,0"
         clip-rule="nonzero"
         id="path67" />
    </clipPath>
    <clipPath
       id="1436907b5f">
      <path
         d="m 100.55078,182 h 193.27734 v 72.51562 H 100.55078 Z m 0,0"
         clip-rule="nonzero"
         id="path70" />
    </clipPath>
    <clipPath
       id="13965f5fcf">
      <path
         d="m 255,176 h 5 v 4 h -5 z m 0,0"
         clip-rule="nonzero"
         id="path73" />
    </clipPath>
    <clipPath
       id="3dfffac1ba">
      <path
         d="m 254.98047,173.62109 6.73047,0.5 -0.60547,8.22657 -6.73438,-0.5 z m 0,0"
         clip-rule="nonzero"
         id="path76" />
    </clipPath>
    <clipPath
       id="c73eb3707f">
      <path
         d="m 254.98047,173.62109 6.73047,0.5 -0.60547,8.22657 -6.73438,-0.5 z m 0,0"
         clip-rule="nonzero"
         id="path79" />
    </clipPath>
    <clipPath
       id="5f34d47cb1">
      <path
         d="m 256,176 h 4 v 7 h -4 z m 0,0"
         clip-rule="nonzero"
         id="path82" />
    </clipPath>
    <clipPath
       id="fa554ddbea">
      <path
         d="m 254.98047,173.62109 6.73047,0.5 -0.60547,8.22657 -6.73438,-0.5 z m 0,0"
         clip-rule="nonzero"
         id="path85" />
    </clipPath>
    <clipPath
       id="dc3a61ad83">
      <path
         d="m 254.98047,173.62109 6.73047,0.5 -0.60547,8.22657 -6.73438,-0.5 z m 0,0"
         clip-rule="nonzero"
         id="path88" />
    </clipPath>
    <clipPath
       id="7110629635">
      <path
         d="m 254,174 h 4 v 4 h -4 z m 0,0"
         clip-rule="nonzero"
         id="path91" />
    </clipPath>
    <clipPath
       id="982813a141">
      <path
         d="m 254.98047,173.62109 6.73047,0.5 -0.60547,8.22657 -6.73438,-0.5 z m 0,0"
         clip-rule="nonzero"
         id="path94" />
    </clipPath>
    <clipPath
       id="02a19ab915">
      <path
         d="m 254.98047,173.62109 6.73047,0.5 -0.60547,8.22657 -6.73438,-0.5 z m 0,0"
         clip-rule="nonzero"
         id="path97" />
    </clipPath>
    <clipPath
       id="98434ffafe">
      <path
         d="m 255,177 h 2 v 2 h -2 z m 0,0"
         clip-rule="nonzero"
         id="path100" />
    </clipPath>
    <clipPath
       id="3fa76e7ecf">
      <path
         d="m 254.98047,173.62109 6.73047,0.5 -0.60547,8.22657 -6.73438,-0.5 z m 0,0"
         clip-rule="nonzero"
         id="path103" />
    </clipPath>
    <clipPath
       id="45698fdf62">
      <path
         d="m 254.98047,173.62109 6.73047,0.5 -0.60547,8.22657 -6.73438,-0.5 z m 0,0"
         clip-rule="nonzero"
         id="path106" />
    </clipPath>
    <clipPath
       id="46ee8d6d61">
      <path
         d="m 256,173 h 5 v 5 h -5 z m 0,0"
         clip-rule="nonzero"
         id="path109" />
    </clipPath>
    <clipPath
       id="d220369e1a">
      <path
         d="m 254.98047,173.62109 6.73047,0.5 -0.60547,8.22657 -6.73438,-0.5 z m 0,0"
         clip-rule="nonzero"
         id="path112" />
    </clipPath>
    <clipPath
       id="f3eca3c2ac">
      <path
         d="m 254.98047,173.62109 6.73047,0.5 -0.60547,8.22657 -6.73438,-0.5 z m 0,0"
         clip-rule="nonzero"
         id="path115" />
    </clipPath>
    <clipPath
       id="9d0316fa23">
      <path
         d="m 258,174 h 4 v 5 h -4 z m 0,0"
         clip-rule="nonzero"
         id="path118" />
    </clipPath>
    <clipPath
       id="fd4343b9e6">
      <path
         d="m 254.98047,173.62109 6.73047,0.5 -0.60547,8.22657 -6.73438,-0.5 z m 0,0"
         clip-rule="nonzero"
         id="path121" />
    </clipPath>
    <clipPath
       id="cd1dea1000">
      <path
         d="m 254.98047,173.62109 6.73047,0.5 -0.60547,8.22657 -6.73438,-0.5 z m 0,0"
         clip-rule="nonzero"
         id="path124" />
    </clipPath>
    <clipPath
       id="1a0431aa4f">
      <path
         d="m 259,176 h 3 v 4 h -3 z m 0,0"
         clip-rule="nonzero"
         id="path127" />
    </clipPath>
    <clipPath
       id="7e0bca0ae7">
      <path
         d="m 254.98047,173.62109 6.73047,0.5 -0.60547,8.22657 -6.73438,-0.5 z m 0,0"
         clip-rule="nonzero"
         id="path130" />
    </clipPath>
    <clipPath
       id="6631a4199e">
      <path
         d="m 254.98047,173.62109 6.73047,0.5 -0.60547,8.22657 -6.73438,-0.5 z m 0,0"
         clip-rule="nonzero"
         id="path133" />
    </clipPath>
  </defs>
  <g
     id="g726"
     transform="translate(-100.55078,-136.1251)">
    <g
       clip-path="url(#c4469f3ad8)"
       id="g140">
      <path
         fill="#4b8a7e"
         d="m 225.77734,150.07812 h 6.09375 l 3.99219,5.81641 h -8.16016 l -2.86718,-3.97266 c -0.5586,-0.76562 -0.008,-1.84375 0.9414,-1.84375 z m 0,0"
         fill-opacity="1"
         fill-rule="nonzero"
         id="path138" />
    </g>
    <path
       fill="#4b8a7e"
       d="m 232.05078,161.91406 -3.67578,-5.08594 h 8.125 l 4.14844,6.05079 h -6.71485 c -0.74609,0 -1.44531,-0.35938 -1.88281,-0.96485 z m 0,0"
       fill-opacity="1"
       fill-rule="nonzero"
       id="path142" />
    <path
       fill="#4b8a7e"
       d="m 241.77734,162.87891 h 5.00782 c 0.94531,0 1.49609,-1.07813 0.9414,-1.84766 l -3.03906,-4.20313 h -7.05859 z m 0,0"
       fill-opacity="1"
       fill-rule="nonzero"
       id="path144" />
    <g
       clip-path="url(#1904c51e5a)"
       id="g148">
      <path
         fill="#4b8a7e"
         d="m 236.98828,155.89453 h 7.02734 l -3.5039,-4.85156 c -0.4375,-0.60547 -1.13672,-0.96485 -1.88281,-0.96485 H 233 Z m 0,0"
         fill-opacity="1"
         fill-rule="nonzero"
         id="path146" />
    </g>
    <g
       clip-path="url(#452de35560)"
       id="g152">
      <path
         fill="#4b8a7e"
         d="m 234.88672,170.55859 v -6.75 h 3.71484 v 6.75 c 0,0.25782 -0.20703,0.46485 -0.46094,0.46485 h -2.78906 c -0.25781,0 -0.46484,-0.20703 -0.46484,-0.46485 z m 0,0"
         fill-opacity="1"
         fill-rule="nonzero"
         id="path150" />
    </g>
    <g
       clip-path="url(#6b437d5dd0)"
       id="g156">
      <path
         fill="#4b8a7e"
         d="m 132.71484,158.41016 c -0.10156,-0.20313 -0.15234,-0.35547 -0.19922,-0.55469 -1.44921,0.5039 -3.59765,1.5664 -5.99609,2.8789 -3.94531,2.22657 -6.9414,4.45313 -6.6914,4.95704 0.25,0.5039 3.69531,-0.91016 7.64062,-3.13672 2.34766,-1.3125 4.39453,-2.67969 5.59375,-3.64063 -0.0977,-0.14844 -0.25,-0.35156 -0.34766,-0.5039 z m 0,0"
         fill-opacity="1"
         fill-rule="nonzero"
         id="path154" />
    </g>
    <g
       clip-path="url(#1cc71433b0)"
       id="g160">
      <path
         fill="#4b8a7e"
         d="m 142.40625,160.63672 c -2.34766,-1.26563 -4.49609,-2.27735 -5.94531,-2.78125 -0.10157,0.40234 -0.30078,0.75781 -0.60157,1.05859 1.19922,0.96094 3.25,2.22656 5.59766,3.54297 3.99609,2.17188 7.44141,3.53906 7.69141,3.03125 0.25,-0.50391 -2.7461,-2.67969 -6.74219,-4.85156 z m 0,0"
         fill-opacity="1"
         fill-rule="nonzero"
         id="path158" />
    </g>
    <g
       clip-path="url(#a6bd94de5c)"
       id="g164">
      <path
         fill="#4b8a7e"
         d="m 135.16016,155.42578 c 0.35156,-1.51562 0.60156,-3.89062 0.75,-6.57031 0.25,-4.60156 0,-8.34375 -0.54688,-8.34375 -0.55078,-0.0508 -1.19922,3.64062 -1.5,8.24219 -0.14844,2.73046 -0.14844,5.10546 0.0508,6.67187 0.44922,-0.14844 0.84766,-0.14844 1.2461,0 z m 0,0"
         fill-opacity="1"
         fill-rule="nonzero"
         id="path162" />
    </g>
    <g
       clip-path="url(#eeeb8e8015)"
       id="g168">
      <path
         fill="#4b8a7e"
         d="m 135.41016,159.01562 c 0.10156,-0.0508 0.19921,-0.14843 0.30078,-0.19921 0.30078,-0.25391 0.5,-0.60938 0.60156,-1.01172 0.0977,-0.40625 0.0469,-0.85938 -0.20313,-1.31641 -0.25,-0.40234 -0.59765,-0.70703 -0.99609,-0.85937 -0.35156,-0.15235 -0.75,-0.15235 -1.14844,0 -0.10156,0.0508 -0.25,0.10156 -0.35156,0.15234 -0.69922,0.40625 -1.05078,1.21484 -0.89844,1.97266 0.0508,0.20312 0.0977,0.35156 0.19922,0.55468 0.10156,0.15235 0.19922,0.30469 0.34766,0.45703 0.15234,0.14844 0.30078,0.25 0.45312,0.30079 l -1.10156,21.89453 h 3.79688 l -1.14844,-21.89453 c 0.0508,-0.0508 0.10156,-0.0508 0.14844,-0.0508 z m 0,0"
         fill-opacity="1"
         fill-rule="nonzero"
         id="path166" />
    </g>
    <g
       clip-path="url(#ba0684005e)"
       id="g172">
      <path
         fill="#e09336"
         d="m 152.67969,164.39844 c -6.73047,7.45703 -19.51172,12.86718 -25.96094,20.44531 1.19141,-1.04688 5.95703,-1.28125 6.00781,-1.28906 12.67578,-1.53907 21.65625,-17.03907 29.10547,-26.52344 9.32031,-11.87109 14.42969,-3.25 18.79688,-1.60938 3.14453,1.1836 10.39843,10.96875 10.98828,10.96875 9.59375,-0.16406 14.89062,-12.89062 18.4375,-8.24609 8.89453,11.66016 11.86328,10.16016 18.03906,16.76563 3.05469,3.26171 10.21484,-9.71485 15.94141,-0.64063 2.83984,4.5 7.83593,5.75781 11.63281,8.875 6.1914,5.09375 10.5625,2.58594 7.48437,0.84375 -11.0625,-6.29297 -9.39843,-4.30078 -19.42578,-13.82031 -11.66797,-11.07813 -6.30078,12.65625 -22.47656,-5.90625 -17.91016,-20.54688 -14.84766,-3.5586 -26.24219,-1.6836 -4.6289,0.76172 -13.05078,-19.28125 -24.03515,-15.48828 -0.52344,0.1836 -17.02344,15.92969 -18.27344,17.31641"
         fill-opacity="1"
         fill-rule="evenodd"
         id="path170" />
    </g>
    <path
       fill="#e09336"
       d="m 196.94531,156.67969 c -0.42187,0 -0.80469,0.17187 -1.08203,0.45312 -0.25781,-0.19922 -0.57812,-0.3164 -0.92578,-0.3164 -0.84766,0 -1.53516,0.69921 -1.53516,1.5625 0,0.86328 0.6875,1.5625 1.53516,1.5625 0.42187,0 0.80469,-0.17188 1.08203,-0.44922 0.25781,0.19531 0.57813,0.3125 0.92578,0.3125 0.84766,0 1.53516,-0.69922 1.53516,-1.5625 0,-0.86328 -0.6875,-1.5625 -1.53516,-1.5625"
       fill-opacity="1"
       fill-rule="nonzero"
       id="path174" />
    <g
       clip-path="url(#288be105c0)"
       id="g178">
      <path
         fill="#e09336"
         d="m 195.89453,163.14062 c 0,0 0.52344,-2.39843 -0.0898,-3.53125 -0.60938,-1.13671 -1.61328,-2.01171 -1.61328,-2.01171 0,0 0.35937,0.2539 1.0039,0.875 0.64844,0.62109 0.32422,0.29296 0.25,-1.24219 0,0 0.28906,1.35156 0.46875,1.39062 0.17969,0.0352 0.14453,-0.18359 0.57422,-0.66015 0,0 -0.42969,0.80468 -0.35937,1.17187 0.0742,0.36328 0.85546,-0.77734 1.04687,-1.47656 0.12109,-0.45313 -0.32422,1.24219 0,1.20312 0.21875,-0.0273 0.42578,-0.68359 0.70313,-0.70703 0,0 -0.75391,0.86719 -0.96094,1.46875 -0.20703,0.60157 -0.36328,1.55469 -0.32813,2.125 0.0352,0.56641 0.26563,1.39453 0.26563,1.39453 h -0.96094"
         fill-opacity="1"
         fill-rule="nonzero"
         id="path176" />
    </g>
    <g
       clip-path="url(#45ac91e2e4)"
       id="g182">
      <path
         fill="#e09336"
         d="m 195.96094,157.08984 c 0,0.92578 -0.73828,1.67578 -1.64844,1.67578 -0.91016,0 -1.64844,-0.75 -1.64844,-1.67578 0,-0.92968 0.73828,-1.67968 1.64844,-1.67968 0.91016,0 1.64844,0.75 1.64844,1.67968"
         fill-opacity="1"
         fill-rule="nonzero"
         id="path180" />
    </g>
    <path
       fill="#e09336"
       d="m 195.13672,158.80078 c 0,0.57422 -0.45703,1.03906 -1.02344,1.03906 -0.56641,0 -1.02344,-0.46484 -1.02344,-1.03906 0,-0.57812 0.45703,-1.04297 1.02344,-1.04297 0.56641,0 1.02344,0.46485 1.02344,1.04297"
       fill-opacity="1"
       fill-rule="nonzero"
       id="path184" />
    <g
       clip-path="url(#41312572aa)"
       id="g188">
      <path
         fill="#e09336"
         d="m 198.42578,156.11328 c 0,1.08984 -0.86719,1.97266 -1.9375,1.97266 -1.07031,0 -1.9375,-0.88282 -1.9375,-1.97266 0,-1.08984 0.86719,-1.97266 1.9375,-1.97266 1.07031,0 1.9375,0.88282 1.9375,1.97266"
         fill-opacity="1"
         fill-rule="nonzero"
         id="path186" />
    </g>
    <g
       clip-path="url(#21b41a45f1)"
       id="g192">
      <path
         fill="#e09336"
         d="m 200.02734,156.96484 c 0,0.99219 -0.79297,1.80078 -1.76953,1.80078 -0.97656,0 -1.76953,-0.80859 -1.76953,-1.80078 0,-0.99609 0.79297,-1.80078 1.76953,-1.80078 0.97656,0 1.76953,0.80469 1.76953,1.80078"
         fill-opacity="1"
         fill-rule="nonzero"
         id="path190" />
    </g>
    <g
       clip-path="url(#e744553127)"
       id="g196">
      <path
         fill="#e09336"
         d="m 200.16016,158.3125 c 0,0.74609 -0.59766,1.35156 -1.33204,1.35156 -0.73437,0 -1.33203,-0.60547 -1.33203,-1.35156 0,-0.75 0.59766,-1.35547 1.33203,-1.35547 0.73438,0 1.33204,0.60547 1.33204,1.35547"
         fill-opacity="1"
         fill-rule="nonzero"
         id="path194" />
    </g>
    <g
       clip-path="url(#58a837eb12)"
       id="g200">
      <path
         fill="#e09336"
         d="m 244.80078,143.28906 c 0.0156,0 0.0469,0.0156 0.0703,0.0391 0.0312,0.0273 0.0391,0.0508 0.0352,0.0781 -0.004,0.0234 -0.0508,0.0977 -0.0977,0.17187 -0.0508,0.0703 -0.20703,0.32032 -0.35156,0.55469 -0.17578,0.28516 -0.27344,0.42969 -0.29687,0.44141 -0.0312,0.0156 -0.0508,0.0117 -0.0859,-0.008 -0.0312,-0.0156 -0.0469,-0.0391 -0.0508,-0.0742 0,-0.0391 0.0391,-0.1211 0.18359,-0.36328 0.10547,-0.17188 0.24609,-0.40235 0.31641,-0.51563 0.0703,-0.11328 0.15625,-0.23047 0.1914,-0.26562 0.0312,-0.0312 0.0703,-0.0586 0.0859,-0.0586 z m -3.24219,0.0937 c 0.0117,0 0.0352,0.008 0.0547,0.0156 0.0234,0.0117 0.0781,0.0781 0.12109,0.15625 0.0469,0.0742 0.16016,0.24609 0.25,0.38281 0.0898,0.13281 0.16797,0.25391 0.16797,0.26562 0,0.0156 -0.0117,0.043 -0.0273,0.0625 -0.0195,0.0234 -0.043,0.0352 -0.0859,0.0352 -0.0469,0 -0.0664,-0.0117 -0.0977,-0.0508 -0.0234,-0.0312 -0.10157,-0.14063 -0.17579,-0.25 -0.0703,-0.10938 -0.17187,-0.26172 -0.21875,-0.33984 -0.0469,-0.0781 -0.0859,-0.15625 -0.0859,-0.17188 0,-0.0156 0.0195,-0.0469 0.0391,-0.0664 0.0234,-0.0234 0.0508,-0.0391 0.0586,-0.0391 z m 0,0"
         fill-opacity="1"
         fill-rule="nonzero"
         id="path198" />
    </g>
    <path
       fill="#e09336"
       d="m 243.41406,144.89453 c 0.0977,0.004 0.25781,0.0234 0.35547,0.0391 0.0977,0.0195 0.25781,0.0586 0.35938,0.0937 0.10156,0.0312 0.26953,0.0937 0.37109,0.13672 0.10156,0.043 0.25,0.11719 0.32812,0.16406 0.082,0.0508 0.1836,0.1211 0.22657,0.16016 0.0469,0.0352 0.1289,0.12109 0.18359,0.1875 0.0547,0.0625 0.125,0.16406 0.15625,0.21875 0.0312,0.0586 0.0742,0.15625 0.10156,0.22266 0.0234,0.0664 0.0586,0.1914 0.0781,0.27734 0.0273,0.11719 0.0352,0.21484 0.0352,0.39453 0,0.20313 -0.004,0.25781 -0.043,0.38672 -0.0234,0.082 -0.0742,0.21094 -0.11329,0.28516 -0.0391,0.0742 -0.10546,0.17968 -0.14843,0.23828 -0.043,0.0547 -0.12891,0.14844 -0.1875,0.20312 -0.0625,0.0547 -0.16407,0.13672 -0.22657,0.17969 -0.0664,0.043 -0.17578,0.10547 -0.24609,0.13672 -0.0703,0.0352 -0.19141,0.082 -0.26953,0.10937 -0.0781,0.0234 -0.23047,0.0625 -0.33594,0.082 -0.14844,0.0273 -0.2539,0.0352 -0.4375,0.0352 -0.15234,0 -0.30469,-0.0117 -0.40625,-0.0273 -0.0898,-0.0117 -0.22265,-0.043 -0.29687,-0.0664 -0.0742,-0.0195 -0.20703,-0.0742 -0.30078,-0.11328 -0.0937,-0.043 -0.23047,-0.12109 -0.30469,-0.17187 -0.0742,-0.0547 -0.1875,-0.14844 -0.25391,-0.21094 -0.0625,-0.0664 -0.15234,-0.16406 -0.1914,-0.22266 -0.043,-0.0547 -0.10157,-0.15625 -0.13672,-0.22656 -0.0352,-0.0703 -0.082,-0.18359 -0.10157,-0.25391 -0.0273,-0.0898 -0.0391,-0.1875 -0.043,-0.35547 -0.008,-0.1289 -0.004,-0.27734 0.008,-0.33984 0.0117,-0.0625 0.0391,-0.17578 0.0625,-0.25391 0.0234,-0.0781 0.082,-0.21875 0.13281,-0.3164 0.0508,-0.0937 0.13672,-0.23047 0.19141,-0.30078 0.0547,-0.0664 0.13672,-0.16407 0.18359,-0.21094 0.043,-0.0469 0.14063,-0.125 0.21484,-0.17969 0.0742,-0.0508 0.1875,-0.11719 0.25,-0.14844 0.0625,-0.0273 0.17969,-0.0703 0.26172,-0.0937 0.082,-0.0195 0.19532,-0.043 0.25782,-0.0508 0.0586,-0.008 0.1875,-0.0117 0.28515,-0.008 z m -0.52344,0.26563 c -0.0508,0.0156 -0.1289,0.0469 -0.17578,0.0664 -0.0469,0.0234 -0.1289,0.0703 -0.1875,0.10938 -0.0547,0.0352 -0.14843,0.11328 -0.20312,0.16797 -0.0586,0.0547 -0.14453,0.14843 -0.19141,0.21093 -0.0469,0.0586 -0.125,0.17969 -0.16797,0.26953 -0.0469,0.0859 -0.10156,0.21875 -0.125,0.29297 -0.0234,0.0703 -0.0469,0.19532 -0.0586,0.27344 -0.008,0.0859 -0.0117,0.20313 -0.004,0.29297 0.008,0.082 0.0273,0.19531 0.043,0.25391 0.0156,0.0547 0.0625,0.16796 0.10156,0.24609 0.0391,0.0781 0.11329,0.19141 0.16407,0.25 0.0508,0.0625 0.15234,0.16016 0.22656,0.22266 0.0781,0.0625 0.19141,0.14062 0.26172,0.17968 0.0664,0.0352 0.1875,0.0898 0.26562,0.1211 0.0781,0.0273 0.22266,0.0703 0.32032,0.0898 0.14062,0.0234 0.23437,0.0312 0.4375,0.0352 0.1875,0 0.30078,-0.008 0.39843,-0.0273 0.0742,-0.0156 0.19532,-0.0469 0.26953,-0.0703 0.0742,-0.0195 0.1875,-0.0625 0.25391,-0.0937 0.0625,-0.0312 0.16016,-0.0859 0.21875,-0.12109 0.0547,-0.0352 0.14844,-0.10547 0.20703,-0.16016 0.0586,-0.0508 0.14063,-0.13672 0.17969,-0.19141 0.0391,-0.0508 0.0977,-0.14453 0.13281,-0.20703 0.0312,-0.0625 0.0742,-0.16797 0.0937,-0.23047 0.0195,-0.0625 0.0391,-0.17578 0.043,-0.25 0.008,-0.0742 0.004,-0.20312 -0.008,-0.29687 -0.0117,-0.0937 -0.0391,-0.22656 -0.0625,-0.30078 -0.0234,-0.0742 -0.0703,-0.19141 -0.10547,-0.26172 -0.0352,-0.0703 -0.0977,-0.16797 -0.14453,-0.22266 -0.043,-0.0508 -0.10547,-0.11718 -0.14063,-0.14453 -0.0352,-0.0312 -0.10156,-0.082 -0.14453,-0.11328 -0.0469,-0.0312 -0.13672,-0.0859 -0.19531,-0.11719 -0.0586,-0.0312 -0.18359,-0.082 -0.27734,-0.11328 -0.0937,-0.0352 -0.20704,-0.0742 -0.25391,-0.0937 -0.0469,-0.0195 -0.13281,-0.0469 -0.19531,-0.0625 -0.0586,-0.0156 -0.1836,-0.0352 -0.27735,-0.0508 -0.0898,-0.0117 -0.21484,-0.0234 -0.26953,-0.0195 -0.0547,0 -0.15234,0.008 -0.21875,0.0195 -0.0625,0.0117 -0.16015,0.0312 -0.21094,0.0469 z m 3.86329,-0.14844 c 0.008,0 0.0352,0.008 0.0586,0.0195 0.0234,0.0117 0.0469,0.0352 0.0508,0.0508 0.004,0.0156 0.004,0.0469 0,0.0664 -0.008,0.0234 -0.0508,0.0547 -0.125,0.0937 -0.0625,0.0312 -0.3125,0.17578 -0.55078,0.3164 -0.24219,0.14063 -0.45703,0.25782 -0.47656,0.25782 -0.0195,0 -0.0547,-0.0117 -0.0703,-0.0312 -0.0195,-0.0156 -0.0352,-0.0469 -0.0352,-0.0664 0,-0.0195 0.008,-0.0469 0.0195,-0.0625 0.0117,-0.0117 0.18359,-0.12109 0.38281,-0.23828 0.19922,-0.11719 0.42578,-0.2461 0.5,-0.28906 0.0742,-0.043 0.15625,-0.0859 0.1836,-0.0977 0.0273,-0.0117 0.0586,-0.0195 0.0625,-0.0195 z m 0,0"
       fill-opacity="1"
       fill-rule="evenodd"
       id="path202" />
    <g
       clip-path="url(#74af426bf7)"
       id="g206">
      <path
         fill="#e09336"
         d="m 239.94141,145.23437 c 0.0312,0.008 0.17968,0.0508 0.32812,0.0977 0.14844,0.0469 0.32422,0.10547 0.39063,0.12891 0.0625,0.0234 0.1289,0.0547 0.14453,0.0703 0.0195,0.0117 0.0312,0.043 0.0312,0.0625 0,0.0234 -0.0156,0.0547 -0.0312,0.0703 -0.0156,0.0156 -0.0469,0.0273 -0.0664,0.0273 -0.0195,0 -0.15625,-0.0391 -0.30469,-0.0898 -0.14453,-0.0469 -0.33203,-0.10937 -0.41406,-0.13281 -0.0859,-0.0234 -0.16797,-0.0469 -0.1875,-0.0508 -0.0156,-0.004 -0.043,-0.0234 -0.0586,-0.0469 -0.0234,-0.0391 -0.0234,-0.0469 0.004,-0.0859 0.0156,-0.0234 0.043,-0.0469 0.0664,-0.0547 0.0195,-0.004 0.0625,-0.004 0.0977,0.004 z m 0.82812,1.64454 c 0.0312,-0.004 0.0742,0.008 0.0937,0.0195 0.0273,0.0195 0.0391,0.0391 0.0391,0.082 0,0.0391 -0.0117,0.0586 -0.0391,0.0742 -0.0195,0.0117 -0.0898,0.0273 -0.15625,0.0312 -0.0625,0.008 -0.32422,0.0352 -1.03125,0.11328 l -0.0352,-0.0312 c -0.0195,-0.0156 -0.0352,-0.0508 -0.0352,-0.0742 0,-0.0234 0.0117,-0.0547 0.0273,-0.0703 0.0234,-0.0234 0.10156,-0.0391 0.35156,-0.0664 0.17579,-0.0195 0.41016,-0.0469 0.52344,-0.0586 0.10938,-0.008 0.22656,-0.0195 0.26172,-0.0195 z m 0,0"
         fill-opacity="1"
         fill-rule="nonzero"
         id="path204" />
    </g>
    <g
       clip-path="url(#b6337cb8ec)"
       id="g210">
      <path
         fill="#e09336"
         d="m 246.04297,147.64062 c 0.0508,0.008 0.22265,0.0352 0.3789,0.0664 0.16016,0.0273 0.36719,0.0703 0.46485,0.0937 0.11328,0.0234 0.18359,0.0469 0.19922,0.0664 0.0117,0.0156 0.0195,0.0469 0.0156,0.0664 -0.004,0.0195 -0.0234,0.0508 -0.0469,0.0703 -0.043,0.0273 -0.043,0.0273 -0.35547,-0.0352 -0.17188,-0.0352 -0.41797,-0.082 -0.54688,-0.10156 -0.17578,-0.0312 -0.24218,-0.0469 -0.25781,-0.0703 -0.0117,-0.0156 -0.0195,-0.043 -0.0195,-0.0625 0,-0.0195 0.0156,-0.0508 0.0352,-0.0703 0.0312,-0.0273 0.0469,-0.0312 0.13281,-0.0234 z m 0,0"
         fill-opacity="1"
         fill-rule="nonzero"
         id="path208" />
    </g>
    <g
       clip-path="url(#fe59824e3f)"
       id="g214">
      <path
         fill="#e09336"
         d="m 241.16797,148.3125 c 0.0391,0 0.0625,0.0117 0.082,0.0391 0.0117,0.0195 0.0234,0.0508 0.0234,0.0703 0,0.0234 -0.0391,0.0703 -0.125,0.14063 -0.0664,0.0586 -0.19532,0.16016 -0.28125,0.22656 -0.0859,0.0664 -0.21485,0.16016 -0.28516,0.20313 -0.0703,0.0469 -0.14062,0.082 -0.16016,0.082 -0.0195,0 -0.043,-0.008 -0.0508,-0.0117 -0.0117,-0.008 -0.0273,-0.0273 -0.0391,-0.0469 -0.0117,-0.0195 -0.0156,-0.0508 -0.0117,-0.0703 0.004,-0.0156 0.0781,-0.0781 0.16406,-0.13672 0.0859,-0.0586 0.25,-0.17968 0.35938,-0.26562 0.10937,-0.0898 0.21484,-0.17578 0.23437,-0.19531 0.0195,-0.0195 0.0508,-0.0312 0.0898,-0.0312 z m 3.55078,0.35937 c 0.0195,0.008 0.043,0.0195 0.0547,0.0273 0.0117,0.0117 0.15625,0.20703 0.32422,0.4375 0.16796,0.23047 0.3125,0.4414 0.32031,0.46875 0.0117,0.0352 0.0117,0.0625 0,0.0859 -0.008,0.0156 -0.0312,0.0352 -0.0469,0.0469 -0.0234,0.008 -0.0508,0.008 -0.0781,0 -0.0273,-0.0117 -0.12891,-0.13672 -0.30078,-0.375 -0.14063,-0.19922 -0.28907,-0.40234 -0.32813,-0.45703 -0.0391,-0.0508 -0.0703,-0.11328 -0.0703,-0.13281 0,-0.0234 0.008,-0.0508 0.0195,-0.0664 0.0117,-0.0156 0.0352,-0.0273 0.0469,-0.0352 0.0156,-0.004 0.043,-0.004 0.0586,0 z m -1.94922,0.3711 c 0.0156,0 0.043,0.008 0.0586,0.0195 0.0156,0.008 0.0391,0.0469 0.0469,0.082 0.008,0.0352 0.008,0.13281 0,0.23047 -0.0117,0.0898 -0.0273,0.21875 -0.043,0.28125 -0.0156,0.0664 -0.043,0.16797 -0.0625,0.22266 -0.0195,0.0586 -0.0469,0.11328 -0.0586,0.12109 -0.0156,0.0117 -0.043,0.0234 -0.0703,0.0195 -0.0234,0 -0.0586,-0.0117 -0.0742,-0.0273 -0.0156,-0.0117 -0.0312,-0.0391 -0.0312,-0.0547 0.004,-0.0156 0.0234,-0.10547 0.0508,-0.20313 0.0273,-0.0977 0.0586,-0.2539 0.0664,-0.34765 0.0117,-0.0937 0.0156,-0.19141 0.008,-0.21485 -0.008,-0.0352 0,-0.0547 0.0352,-0.0859 0.0234,-0.0234 0.0547,-0.043 0.0742,-0.043 z m 0,0"
         fill-opacity="1"
         fill-rule="nonzero"
         id="path212" />
    </g>
    <g
       clip-path="url(#16f109c983)"
       id="g218">
      <path
         fill="#dbd9a6"
         d="m 124.0625,167.14453 h -0.0117 c -0.0273,0 -0.0469,0.0117 -0.0664,0.0273 -0.39454,0.51563 -0.72266,0.89844 -0.98438,1.15235 -0.28516,0.27734 -0.53125,0.46875 -0.73047,0.57422 -0.63281,0.36718 -1.4414,0.60156 -2.42187,0.69922 -1.08594,0.10546 -2.28907,0.0664 -3.60157,-0.10938 -0.5664,-0.0859 -1.05859,-0.17578 -1.47265,-0.26562 l -2.39063,-0.58204 c -0.32812,-0.0781 -0.55859,-0.13281 -0.69531,-0.16015 -0.49219,-0.10156 -0.94141,-0.16797 -1.35547,-0.19531 -1.30469,-0.0469 -2.34375,0.125 -3.11719,0.52343 l -0.35546,0.28125 c 0.0664,-0.004 0.14062,-0.0195 0.22656,-0.0469 0.51953,-0.19141 0.8125,-0.29297 0.86719,-0.29688 0.27343,-0.0664 0.49218,-0.11328 0.66015,-0.13281 0.62891,-0.082 1.25391,-0.0937 1.875,-0.0312 0.32031,0.0352 0.69141,0.0977 1.11328,0.19531 l 3.08594,0.80469 c 0.46875,0.10938 0.91406,0.20313 1.34766,0.27344 1.24218,0.20312 2.40625,0.28125 3.48828,0.23437 1.33984,-0.0664 2.41015,-0.35156 3.21484,-0.85937 0.46485,-0.28906 1.01563,-0.83594 1.65235,-1.64063 0.0977,-0.17968 -0.0117,-0.32812 -0.32813,-0.44531"
         fill-opacity="1"
         fill-rule="nonzero"
         id="path216" />
    </g>
    <g
       clip-path="url(#b2b27547c4)"
       id="g222">
      <path
         fill="#dbd9a6"
         d="m 125.89844,168.23828 h -0.0117 c -0.0312,0 -0.0586,0.0117 -0.082,0.0352 -0.39063,0.53906 -0.74219,0.95703 -1.04688,1.2539 -0.28515,0.28516 -0.57812,0.52344 -0.87109,0.71485 -0.37891,0.25 -0.84766,0.48047 -1.40234,0.69531 -0.21875,0.0781 -0.375,0.12891 -0.47657,0.16016 l -1.0625,0.29296 -0.4375,0.14063 -0.11718,0.0508 -0.11329,0.0156 c 0.11719,0.0312 0.25391,0.043 0.41407,0.0312 0.64062,-0.0508 1.30859,-0.1836 2.00781,-0.40235 0.64062,-0.21094 1.1875,-0.46484 1.63672,-0.75781 0.59375,-0.37109 1.21484,-0.96094 1.86719,-1.76953 0.0586,-0.0508 0.0625,-0.14063 0.008,-0.26172 -0.004,-0.0195 -0.043,-0.0625 -0.11719,-0.12891 -0.0664,-0.0469 -0.13281,-0.0703 -0.19531,-0.0703"
         fill-opacity="1"
         fill-rule="nonzero"
         id="path220" />
    </g>
    <g
       clip-path="url(#f8e3725444)"
       id="g226">
      <path
         fill="#dbd9a6"
         d="m 120.78516,158.52344 h -0.008 c -0.0273,0 -0.0508,-0.0117 -0.0664,-0.0273 -0.39453,-0.51562 -0.72266,-0.89843 -0.98438,-1.15234 -0.28906,-0.27734 -0.53125,-0.46875 -0.73437,-0.57422 -0.63281,-0.36719 -1.4375,-0.60156 -2.42188,-0.69922 -1.08203,-0.10547 -2.28515,-0.0664 -3.59765,0.10938 -0.56641,0.0859 -1.0586,0.17578 -1.47266,0.26562 l -2.39062,0.58203 c -0.32813,0.0781 -0.5586,0.13282 -0.69532,0.16016 -0.49218,0.10156 -0.9414,0.16797 -1.35547,0.19531 -1.30468,0.0469 -2.34375,-0.125 -3.11718,-0.52344 l -0.35157,-0.28125 c 0.0625,0.004 0.13672,0.0195 0.22266,0.0469 0.52344,0.19141 0.8125,0.29297 0.87109,0.29687 0.26954,0.0664 0.48829,0.11329 0.65625,0.13282 0.62891,0.082 1.25391,0.0937 1.875,0.0312 0.32032,-0.0352 0.69141,-0.0977 1.11329,-0.19532 l 3.08593,-0.80468 c 0.46875,-0.10938 0.91407,-0.20313 1.34375,-0.27344 1.2461,-0.20313 2.41016,-0.28125 3.49219,-0.23438 1.33984,0.0664 2.41016,0.35157 3.21094,0.85938 0.46875,0.28906 1.01953,0.83594 1.65625,1.64062 0.0937,0.17969 -0.0156,0.32813 -0.33203,0.44532"
         fill-opacity="1"
         fill-rule="nonzero"
         id="path224" />
    </g>
    <g
       clip-path="url(#57afcf2ac5)"
       id="g230">
      <path
         fill="#dbd9a6"
         d="m 122.62109,157.42969 h -0.008 c -0.0352,0 -0.0625,-0.0156 -0.082,-0.0352 -0.39453,-0.53906 -0.74219,-0.95703 -1.04687,-1.25391 -0.28907,-0.28515 -0.57813,-0.52343 -0.8711,-0.71484 -0.3789,-0.25 -0.84765,-0.48047 -1.40625,-0.69531 -0.21484,-0.0781 -0.375,-0.12891 -0.47656,-0.16016 l -1.05859,-0.29297 -0.4375,-0.14062 -0.1211,-0.0508 -0.10937,-0.0156 c 0.11328,-0.0312 0.2539,-0.043 0.41406,-0.0312 0.64062,0.0508 1.30859,0.1836 2.00391,0.40235 0.64453,0.21093 1.1875,0.46484 1.64062,0.75781 0.59375,0.37109 1.21484,0.96094 1.86719,1.76953 0.0586,0.0508 0.0586,0.14062 0.008,0.26172 -0.004,0.0195 -0.0469,0.0625 -0.12109,0.1289 -0.0664,0.0469 -0.12891,0.0703 -0.19532,0.0703"
         fill-opacity="1"
         fill-rule="nonzero"
         id="path228" />
    </g>
    <g
       clip-path="url(#f2715db1cc)"
       id="g234">
      <path
         fill="#4b8a7e"
         d="m 130.40625,143.5625 c -0.4375,0.10156 -0.89063,0.14453 -1.33984,0.16797 -0.85938,0.0469 -1.72266,0.0234 -2.58203,-0.0312 -0.42579,-0.0273 -0.85157,-0.0586 -1.27344,-0.10547 -0.0898,-0.0117 -0.0898,-0.14844 0,-0.14063 0.14453,0.0195 0.29297,0.0312 0.4414,0.043 0.73829,0.0664 1.47657,0.10938 2.21875,0.11719 0.44141,0.008 0.88672,0 1.32813,-0.0273 0.39453,-0.0273 0.78515,-0.0664 1.17187,-0.15625 0.0859,-0.0195 0.1211,0.11328 0.0352,0.13281 z m -1.03516,-6.01953 c -0.4375,-0.0977 -0.93359,-0.0391 -1.3125,0.21484 -0.14843,0.0977 -0.26953,0.21875 -0.36328,0.36328 -0.0703,-0.45703 -0.3125,-0.875 -0.64843,-1.1875 -0.4375,-0.41015 -1.01172,-0.61328 -1.60157,-0.64062 -1.16406,-0.0469 -2.34765,0.54297 -2.98437,1.52734 -0.30469,0.46485 -0.46094,1.01953 -0.38672,1.57422 -0.47266,-0.19531 -1.02344,-0.15625 -1.46875,0.0898 -0.48828,0.27344 -0.78516,0.79297 -0.82422,1.35157 -0.0156,0.28906 0.0391,0.57812 0.16406,0.83984 -0.14453,0 -0.27734,0.10156 -0.34765,0.23828 -0.10938,0.20313 -0.0664,0.41797 0.0703,0.59375 0.15234,0.1875 0.37891,0.29297 0.59766,0.38281 0.26953,0.11329 0.55078,0.20313 0.83203,0.28125 0.32422,0.0898 0.65625,0.15625 0.98828,0.21094 0.0859,0.0117 0.125,-0.12109 0.0352,-0.13281 -0.51562,-0.082 -1.02734,-0.20313 -1.51953,-0.37891 -0.21484,-0.0742 -0.4375,-0.15625 -0.63281,-0.28125 -0.14844,-0.0977 -0.31641,-0.26172 -0.29687,-0.45703 0.0117,-0.15625 0.16796,-0.38672 0.34765,-0.30859 0.0742,0.0312 0.14063,-0.0664 0.0859,-0.10938 0.004,-0.0156 0,-0.0312 -0.008,-0.0469 -0.2461,-0.44922 -0.23438,-1.01563 0,-1.46875 0.23828,-0.45313 0.69922,-0.73828 1.20312,-0.78516 0.28125,-0.0234 0.57031,0.0234 0.82422,0.15625 0.0547,0.0273 0.11328,-0.0195 0.10156,-0.0781 -0.20703,-1.03907 0.48828,-2.02344 1.32813,-2.55078 0.94531,-0.59375 2.3125,-0.75782 3.24219,-0.043 0.44921,0.34765 0.76953,0.8789 0.78125,1.46093 0,0.082 0.10937,0.0859 0.13671,0.0156 0.32813,-0.81641 1.48438,-0.91797 2.14453,-0.48047 0.27344,0.17969 0.48829,0.4375 0.65235,0.72266 0.043,0.0742 0.16406,0.008 0.11719,-0.0703 -0.27735,-0.48437 -0.70704,-0.88281 -1.25782,-1.0039 z m 12,2.23437 c -0.93359,0.043 -1.86328,0.0859 -2.79687,0.12891 -0.83594,0.0391 -1.67188,0.0937 -2.50781,0.11328 -0.15625,0.004 -0.34375,0.0234 -0.48438,-0.0586 -0.11328,-0.0664 -0.18359,-0.19141 -0.1875,-0.32422 -0.008,-0.15625 0.082,-0.27344 0.20313,-0.36328 0.13671,-0.10157 0.29687,-0.17578 0.46093,-0.21485 -0.0117,-0.0547 -0.0117,-0.10937 -0.004,-0.16797 0.004,-0.0234 0.0156,-0.0469 0.0195,-0.0664 0.004,-0.0234 0.004,-0.0469 0.004,-0.0664 0.0234,-0.1875 0.082,-0.39062 0.22266,-0.51953 0.20703,-0.1875 0.48438,-0.12891 0.71875,-0.0156 -0.0469,-0.36329 0.0234,-0.73829 0.1875,-1.06641 0.16406,-0.32813 0.42188,-0.61719 0.73828,-0.80078 0.32031,-0.19141 0.69531,-0.26563 1.06641,-0.21485 0.6914,0.0898 1.32812,0.58204 1.55469,1.25391 0.17578,-0.13672 0.3789,-0.23437 0.59375,-0.28516 0.45312,-0.10156 0.92968,0 1.28906,0.30079 0.3164,0.26953 0.51953,0.66796 0.54687,1.08593 0.0391,-0.0156 0.082,-0.0312 0.125,-0.043 0.31641,-0.0937 0.6836,-0.0312 0.89453,0.24219 0.21875,0.28125 0.16016,0.69922 -0.16015,0.8711 -0.14063,0.0781 -0.30078,0.10156 -0.45703,0.11718 -0.21485,0.0156 -0.42969,0.0195 -0.64063,0.0312 -0.46484,0.0195 -0.92578,0.043 -1.38672,0.0625 z m -2.41797,-0.0234 c 0.85547,-0.043 1.71094,-0.082 2.56641,-0.1211 0.42188,-0.0195 0.84766,-0.0391 1.26953,-0.0586 0.19922,-0.008 0.39453,-0.0156 0.58985,-0.0273 0.14062,-0.0117 0.28906,-0.0312 0.41406,-0.10156 0.1289,-0.0742 0.21875,-0.21094 0.21875,-0.36328 0.004,-0.16016 -0.082,-0.3125 -0.21094,-0.40625 -0.24219,-0.18359 -0.58203,-0.14844 -0.83594,-0.0117 -0.0469,0.0234 -0.10547,-0.004 -0.10547,-0.0625 0.004,-0.23047 -0.0547,-0.45703 -0.16406,-0.66015 -0.19531,-0.3711 -0.54297,-0.64063 -0.95703,-0.71094 -0.41016,-0.0742 -0.85156,0.0508 -1.16016,0.33203 -0.0391,0.0352 -0.10156,0.0234 -0.11718,-0.0312 -0.0977,-0.37109 -0.33203,-0.69531 -0.64453,-0.91797 -0.27344,-0.19922 -0.60547,-0.32812 -0.94532,-0.34766 -0.34375,-0.0195 -0.67578,0.0781 -0.96093,0.27735 -0.55469,0.38281 -0.88282,1.11719 -0.73438,1.78906 0,0.004 0,0.008 0,0.008 0.004,0.0195 -0.004,0.0391 -0.0117,0.0508 -0.0195,0.0234 -0.0469,0.0352 -0.0742,0.0273 -0.0117,-0.004 -0.0195,-0.008 -0.0273,-0.0156 -0.14453,-0.082 -0.3125,-0.16406 -0.48047,-0.14453 -0.18359,0.0156 -0.28125,0.17578 -0.33203,0.33594 -0.0117,0.0391 -0.0195,0.0781 -0.0273,0.11719 0,0.0117 -0.004,0.0273 -0.008,0.043 0,0.004 0,0.0195 0,0.0273 -0.004,0.0156 -0.004,0.0312 -0.004,0.043 -0.004,0.0273 -0.0156,0.0547 -0.0195,0.082 -0.0117,0.0664 -0.004,0.12891 0.0156,0.1875 0.0156,0.0352 -0.0117,0.0781 -0.0469,0.0859 -0.0859,0.0156 -0.17188,0.0391 -0.25391,0.0742 -0.082,0.0391 -0.16016,0.082 -0.23047,0.13671 -0.0547,0.0391 -0.10547,0.0781 -0.12891,0.14454 -0.0391,0.0977 -0.008,0.22265 0.0781,0.28906 0.0547,0.043 0.11719,0.0508 0.18359,0.0586 0.082,0.004 0.16407,0 0.2461,0 0.11328,-0.004 0.23047,-0.008 0.34375,-0.0117 0.85156,-0.0391 1.70312,-0.0781 2.55468,-0.11718 z m 4.60938,9.41406 c -0.34766,-0.19141 -0.77734,-0.13672 -1.08594,0.0977 0.043,-0.34375 -0.125,-0.69531 -0.34375,-0.96093 -0.27344,-0.33594 -0.71875,-0.66407 -1.17578,-0.53125 -0.21484,0.0586 -0.40234,0.21484 -0.46094,0.43359 -0.0234,0.0898 0.10938,0.125 0.13282,0.0391 0.043,-0.16406 0.17968,-0.27734 0.33593,-0.33203 0.17969,-0.0586 0.36719,-0.0312 0.53516,0.0508 0.1875,0.0898 0.35156,0.23047 0.48828,0.38282 0.12891,0.14843 0.24219,0.32031 0.30469,0.5039 0.0703,0.20313 0.082,0.42188 -0.0156,0.61719 -0.043,0.082 0.0664,0.14062 0.11719,0.0703 0.23047,-0.3164 0.69141,-0.44531 1.04688,-0.27734 0.17578,0.0859 0.32031,0.22656 0.41015,0.40234 0.0469,0.0859 0.0781,0.17969 0.0898,0.27735 0.0117,0.0898 0.0156,0.19921 -0.0859,0.24218 -0.082,0.0312 -0.1875,0.0156 -0.27344,0.008 -0.11719,-0.008 -0.23828,-0.0195 -0.35547,-0.0312 -0.24609,-0.0234 -0.48828,-0.0508 -0.73047,-0.0781 -0.49609,-0.0547 -0.99218,-0.11719 -1.48437,-0.17578 -0.54297,-0.0664 -1.08203,-0.125 -1.625,-0.17188 -0.0859,-0.004 -0.0859,0.13282 0,0.14063 1.0664,0.0859 2.1289,0.23828 3.1914,0.35547 0.26172,0.0312 0.52344,0.0586 0.78907,0.082 0.11328,0.0117 0.23437,0.0273 0.34765,0.0273 0.10157,0 0.20703,-0.0156 0.28516,-0.0859 0.16016,-0.14844 0.0703,-0.44532 -0.008,-0.61719 -0.0898,-0.19531 -0.24219,-0.36328 -0.42969,-0.46875 z m -22.98437,-8.55078 c -0.0586,0.0664 0.0391,0.16406 0.0977,0.0977 0.28906,-0.32031 0.73438,-0.48437 1.16016,-0.41015 0.0859,0.0156 0.125,-0.1211 0.0352,-0.13282 -0.47265,-0.082 -0.96875,0.0859 -1.29296,0.44532 z m 21.33593,-2.58985 c 0.30078,0.14063 0.52344,0.41797 0.58985,0.7461 0.0195,0.0859 0.15234,0.0508 0.13281,-0.0391 -0.0742,-0.35546 -0.32422,-0.67187 -0.65235,-0.82812 -0.0352,-0.0156 -0.0742,-0.008 -0.0937,0.0273 -0.0195,0.0273 -0.0117,0.0781 0.0234,0.0937 z m -17.49609,-0.87109 c -0.27344,0.13672 -0.53125,0.30859 -0.76172,0.51172 -0.0664,0.0586 0.0312,0.15625 0.0977,0.0977 0.22265,-0.19531 0.46875,-0.35937 0.73437,-0.49218 0.0781,-0.0391 0.008,-0.15625 -0.0703,-0.11719 z m 0.21484,0.35937 c -0.11718,0.0742 -0.23828,0.14454 -0.35547,0.21485 -0.0312,0.0156 -0.0469,0.0625 -0.0273,0.0937 0.0195,0.0312 0.0625,0.043 0.0937,0.0234 0.12109,-0.0703 0.23828,-0.14063 0.35938,-0.21094 0.0312,-0.0195 0.043,-0.0625 0.0234,-0.0937 -0.0195,-0.0312 -0.0586,-0.0469 -0.0937,-0.0273 z m 0,0"
         fill-opacity="1"
         fill-rule="nonzero"
         id="path232" />
    </g>
    <g
       clip-path="url(#1436907b5f)"
       id="g238">
      <path
         fill="#4b8a7e"
         d="m 110.875,244.38281 c 12.89844,-5.16797 40.74219,-16.01172 47.10547,-16.01172 6.03515,0 34.22656,5.78907 50.5,9.23828 0.62109,0.13282 1.23828,0.0781 1.83984,-0.15625 l 74.86328,-29.02343 c -2.16797,-2.96485 -6.39843,-6.52344 -14.2539,-6.60938 -12.67188,-0.33203 -31.00782,5.16016 -40.4961,8.23047 1.01563,1.24219 1.94532,2.57422 2.76172,4.00781 1.52344,2.6836 1.35938,5.9336 -0.43359,8.47266 -1.8125,2.56641 -4.85938,3.82812 -7.94141,3.29297 -2.48437,-0.42969 -5.29297,-0.94141 -8.3125,-1.48828 -13.42969,-2.44141 -31.82422,-5.78907 -42.3789,-5.79297 -2.27735,0 -4.125,-1.84375 -4.125,-4.11719 0,-2.26953 1.84765,-4.10937 4.125,-4.10937 11.30078,0.008 29.35546,3.28906 43.86328,5.92578 2.98828,0.54297 5.77734,1.05468 8.02734,1.875 -1.40625,-2.47266 -3.32031,-4.57813 -5.55859,-6.40235 -0.1836,-0.1289 -0.35157,-0.26562 -0.51953,-0.42187 -5.89063,-4.60156 -13.82422,-7.3711 -20.58985,-9.73047 -1.35156,-0.47266 -2.64453,-0.92578 -3.85937,-1.36719 -23.12891,-8.48047 -32.69922,-11.98828 -47.19922,-7.87109 -14.76563,4.19531 -21.39844,13.98047 -21.45313,14.0625 -0.54296,0.82812 -1.35546,1.4375 -2.30859,1.71484 l -15.63672,4.53906 z m -7.46094,-38.72265 17.46485,-5.06641 c 2.61328,-3.33594 10.55859,-12.03516 25.15625,-16.17969 17.0664,-4.84765 28.10937,-0.80078 52.30468,8.0586 1.17188,0.42968 2.42969,0.86718 3.73828,1.32812 6.5586,2.28906 14.66016,5.11719 21.40625,9.89063 7.25,-2.51172 31.01954,-10.16407 47.53907,-10.09766 11.28125,0.125 17.55468,5.50391 20.82422,9.98828 1.51171,2.07031 1.96875,4.66797 1.25,7.125 -0.72266,2.47266 -2.51954,4.41797 -4.91797,5.35547 l -74.86719,29.05469 c -2.10547,0.8125 -4.35938,1.0039 -6.55859,0.53125 -25.9375,-5.4961 -45.08594,-9.05078 -48.77344,-9.05078 -3.92578,0 -28.15235,8.92187 -49.30078,17.54687 -0.50391,0.20313 -1.03906,0.30469 -1.56641,0.30469 -0.76172,0 -1.52344,-0.21094 -2.1875,-0.62891 -1.1289,-0.70312 -1.84375,-1.90625 -1.92969,-3.22656 l -2.54687,-40.72656 c -0.11719,-1.92188 1.11328,-3.66797 2.96484,-4.20703"
         fill-opacity="1"
         fill-rule="nonzero"
         id="path236" />
    </g>
    <g
       clip-path="url(#13965f5fcf)"
       id="g246">
      <g
         clip-path="url(#3dfffac1ba)"
         id="g244">
        <g
           clip-path="url(#c73eb3707f)"
           id="g242">
          <path
             fill="#e09336"
             d="m 258.65234,176.22656 c -0.3789,-0.0273 -0.73047,0.10547 -1,0.33985 -0.21875,-0.19532 -0.49609,-0.32422 -0.80859,-0.34766 -0.76172,-0.0586 -1.42969,0.53516 -1.48438,1.32422 -0.0586,0.78906 0.51172,1.47656 1.27344,1.53125 0.375,0.0273 0.73047,-0.10156 1,-0.33985 0.21875,0.19922 0.4961,0.32813 0.8086,0.35157 0.76171,0.0547 1.42578,-0.53907 1.48437,-1.32813 0.0586,-0.78906 -0.51172,-1.47656 -1.27344,-1.53125"
             fill-opacity="1"
             fill-rule="nonzero"
             id="path240" />
        </g>
      </g>
    </g>
    <g
       clip-path="url(#5f34d47cb1)"
       id="g254">
      <g
         clip-path="url(#fa554ddbea)"
         id="g252">
        <g
           clip-path="url(#dc3a61ad83)"
           id="g250">
          <path
             fill="#e09336"
             d="m 257.27344,182.0625 c 0,0 0.63281,-2.15625 0.16015,-3.23438 -0.47265,-1.07812 -1.3164,-1.94531 -1.3164,-1.94531 0,0 0.30468,0.25781 0.84375,0.86719 0.53906,0.60937 0.27343,0.28906 0.3125,-1.11719 0,0 0.16406,1.25391 0.32422,1.30078 0.16015,0.043 0.14062,-0.16015 0.55859,-0.5664 0,0 -0.44141,0.70703 -0.39844,1.04687 0.0391,0.33985 0.81641,-0.65625 1.03516,-1.27734 0.14453,-0.40625 -0.3711,1.10937 -0.0781,1.09765 0.19922,-0.008 0.42578,-0.59765 0.67969,-0.59765 0,0 -0.73828,0.73828 -0.96484,1.27734 -0.22657,0.53516 -0.42969,1.39453 -0.4375,1.91797 -0.004,0.52344 0.14843,1.29688 0.14843,1.29688 l -0.86718,-0.0664"
             fill-opacity="1"
             fill-rule="nonzero"
             id="path248" />
        </g>
      </g>
    </g>
    <g
       clip-path="url(#7110629635)"
       id="g262">
      <g
         clip-path="url(#982813a141)"
         id="g260">
        <g
           clip-path="url(#02a19ab915)"
           id="g258">
          <path
             fill="#e09336"
             d="m 257.74609,176.53516 c -0.0625,0.84765 -0.77734,1.48437 -1.59375,1.42187 -0.82031,-0.0586 -1.42968,-0.79297 -1.36718,-1.64062 0.0625,-0.84766 0.77343,-1.48438 1.59375,-1.42579 0.8164,0.0625 1.42968,0.79688 1.36718,1.64454"
             fill-opacity="1"
             fill-rule="nonzero"
             id="path256" />
        </g>
      </g>
    </g>
    <g
       clip-path="url(#98434ffafe)"
       id="g270">
      <g
         clip-path="url(#3fa76e7ecf)"
         id="g268">
        <g
           clip-path="url(#45698fdf62)"
           id="g266">
          <path
             fill="#e09336"
             d="m 256.88672,178.04297 c -0.0391,0.52734 -0.48047,0.92187 -0.98828,0.88672 -0.50782,-0.0391 -0.89063,-0.4961 -0.85157,-1.02344 0.0391,-0.52344 0.48438,-0.92188 0.99219,-0.88281 0.50781,0.0352 0.88672,0.49218 0.84766,1.01953"
             fill-opacity="1"
             fill-rule="nonzero"
             id="path264" />
        </g>
      </g>
    </g>
    <g
       clip-path="url(#46ee8d6d61)"
       id="g278">
      <g
         clip-path="url(#d220369e1a)"
         id="g276">
        <g
           clip-path="url(#f3eca3c2ac)"
           id="g274">
          <path
             fill="#e09336"
             d="m 260.02344,175.80859 c -0.0742,0.99219 -0.91407,1.74219 -1.875,1.67188 -0.96094,-0.0703 -1.67969,-0.9336 -1.60938,-1.92969 0.0742,-0.99609 0.91406,-1.74609 1.875,-1.67578 0.96094,0.0703 1.67969,0.9375 1.60938,1.93359"
             fill-opacity="1"
             fill-rule="nonzero"
             id="path272" />
        </g>
      </g>
    </g>
    <g
       clip-path="url(#9d0316fa23)"
       id="g286">
      <g
         clip-path="url(#fd4343b9e6)"
         id="g284">
        <g
           clip-path="url(#cd1dea1000)"
           id="g282">
          <path
             fill="#e09336"
             d="m 261.40234,176.69141 c -0.0664,0.90625 -0.83203,1.59375 -1.71093,1.52734 -0.87891,-0.0664 -1.53516,-0.85547 -1.46875,-1.76563 0.0703,-0.90625 0.83593,-1.58984 1.71093,-1.52734 0.87891,0.0664 1.53516,0.85547 1.46875,1.76563"
             fill-opacity="1"
             fill-rule="nonzero"
             id="path280" />
        </g>
      </g>
    </g>
    <g
       clip-path="url(#1a0431aa4f)"
       id="g294">
      <g
         clip-path="url(#7e0bca0ae7)"
         id="g292">
        <g
           clip-path="url(#6631a4199e)"
           id="g290">
          <path
             fill="#e09336"
             d="m 261.42969,177.92969 c -0.0508,0.68359 -0.625,1.19922 -1.28516,1.15234 -0.66406,-0.0508 -1.15625,-0.64453 -1.10547,-1.32812 0.0508,-0.6836 0.625,-1.19922 1.28516,-1.14844 0.66406,0.0469 1.15625,0.64062 1.10547,1.32422"
             fill-opacity="1"
             fill-rule="nonzero"
             id="path288" />
        </g>
      </g>
    </g>
    <g
       fill="#e09336"
       fill-opacity="1"
       id="g302">
      <g
         transform="translate(112.1581,280.28283)"
         id="g300">
        <g
           id="g298">
          <path
             d="m 11.785156,-18.652344 v -1.582031 c 0,-0.226563 -0.08984,-0.402344 -0.261718,-0.574219 -0.171876,-0.171875 -0.34375,-0.257812 -0.574219,-0.257812 H 2.269531 c -0.230469,0 -0.429687,0.08594 -0.601562,0.257812 -0.171875,0.171875 -0.230469,0.347656 -0.230469,0.574219 v 19.402344 c 0,0.226562 0.058594,0.429687 0.230469,0.601562 C 1.839844,-0.0585938 2.039062,0 2.269531,0 h 8.679688 c 0.230469,0 0.402343,-0.0585938 0.574219,-0.230469 0.171874,-0.171875 0.261718,-0.375 0.261718,-0.601562 v -1.582031 c 0,-0.230469 -0.08984,-0.402344 -0.261718,-0.574219 -0.171876,-0.171875 -0.34375,-0.257813 -0.574219,-0.257813 H 5.519531 c -0.230469,0 -0.433593,-0.058594 -0.605469,-0.230468 -0.171874,-0.171876 -0.230468,-0.375 -0.230468,-0.605469 v -6.265625 c 0,-0.230469 0.058594,-0.402344 0.230468,-0.574219 0.171876,-0.171875 0.375,-0.257813 0.605469,-0.257813 h 3.589844 c 0.230469,0 0.433594,-0.08594 0.605469,-0.257812 0.171875,-0.171875 0.257812,-0.375 0.257812,-0.605469 v -1.550781 c 0,-0.230469 -0.085937,-0.402344 -0.257812,-0.574219 -0.171875,-0.171875 -0.375,-0.257812 -0.605469,-0.257812 H 5.519531 c -0.230469,0 -0.433593,-0.05859 -0.605469,-0.230469 -0.171874,-0.171875 -0.230468,-0.375 -0.230468,-0.605469 v -1.722656 c 0,-0.230469 0.058594,-0.402344 0.230468,-0.574219 0.171876,-0.175781 0.375,-0.261718 0.605469,-0.261718 h 5.429688 c 0.230469,0 0.402343,-0.05469 0.574219,-0.226563 0.171874,-0.175781 0.261718,-0.375 0.261718,-0.605469 z m 0,0"
             id="path296" />
        </g>
      </g>
    </g>
    <g
       fill="#e09336"
       fill-opacity="1"
       id="g310">
      <g
         transform="translate(125.37588,280.28283)"
         id="g308">
        <g
           id="g306">
          <path
             d="M 4.683594,-21.066406 H 2.269531 c -0.230469,0 -0.429687,0.08594 -0.601562,0.257812 -0.171875,0.171875 -0.230469,0.347656 -0.230469,0.574219 v 19.402344 c 0,0.226562 0.058594,0.429687 0.230469,0.601562 C 1.839844,-0.0585938 2.039062,0 2.269531,0 h 2.414063 c 1.554687,0 2.933594,-0.257812 4.195312,-0.832031 1.238282,-0.546875 2.300782,-1.292969 3.164063,-2.273438 0.859375,-0.945312 1.550781,-2.066406 2.011719,-3.332031 0.460937,-1.265625 0.71875,-2.644531 0.71875,-4.109375 0,-1.4375 -0.257813,-2.816406 -0.71875,-4.082031 -0.460938,-1.265625 -1.152344,-2.386719 -2.011719,-3.332032 -0.863281,-0.949218 -1.925781,-1.695312 -3.164063,-2.273437 -1.261718,-0.542969 -2.640625,-0.832031 -4.195312,-0.832031 z m 0,16.929687 v -12.820312 c 0,-0.230469 0.085937,-0.460938 0.257812,-0.632813 0.175782,-0.171875 0.402344,-0.230468 0.691406,-0.199218 0.917969,0.113281 1.726563,0.402343 2.441407,0.804687 0.691406,0.429687 1.296875,0.976563 1.785156,1.609375 0.457031,0.632812 0.832031,1.378906 1.0625,2.210938 0.230469,0.835937 0.371094,1.695312 0.371094,2.617187 0,0.917969 -0.140625,1.808594 -0.371094,2.644531 -0.230469,0.832032 -0.605469,1.578125 -1.0625,2.210938 -0.488281,0.632812 -1.09375,1.179687 -1.785156,1.582031 -0.714844,0.429687 -1.523438,0.6875 -2.441407,0.804687 -0.289062,0.058594 -0.515624,0 -0.691406,-0.171874 -0.171875,-0.171876 -0.257812,-0.375 -0.257812,-0.660157 z m 0,0"
             id="path304" />
        </g>
      </g>
    </g>
    <g
       fill="#e09336"
       fill-opacity="1"
       id="g318">
      <g
         transform="translate(141.58204,280.28283)"
         id="g316">
        <g
           id="g314">
          <path
             d="m 11.785156,-18.652344 v -1.582031 c 0,-0.226563 -0.08984,-0.402344 -0.261718,-0.574219 -0.171876,-0.171875 -0.34375,-0.257812 -0.574219,-0.257812 H 2.269531 c -0.230469,0 -0.429687,0.08594 -0.601562,0.257812 -0.171875,0.171875 -0.230469,0.347656 -0.230469,0.574219 v 19.402344 c 0,0.226562 0.058594,0.429687 0.230469,0.601562 C 1.839844,-0.0585938 2.039062,0 2.269531,0 h 8.679688 c 0.230469,0 0.402343,-0.0585938 0.574219,-0.230469 0.171874,-0.171875 0.261718,-0.375 0.261718,-0.601562 v -1.582031 c 0,-0.230469 -0.08984,-0.402344 -0.261718,-0.574219 -0.171876,-0.171875 -0.34375,-0.257813 -0.574219,-0.257813 H 5.519531 c -0.230469,0 -0.433593,-0.058594 -0.605469,-0.230468 -0.171874,-0.171876 -0.230468,-0.375 -0.230468,-0.605469 v -6.265625 c 0,-0.230469 0.058594,-0.402344 0.230468,-0.574219 0.171876,-0.171875 0.375,-0.257813 0.605469,-0.257813 h 3.589844 c 0.230469,0 0.433594,-0.08594 0.605469,-0.257812 0.171875,-0.171875 0.257812,-0.375 0.257812,-0.605469 v -1.550781 c 0,-0.230469 -0.085937,-0.402344 -0.257812,-0.574219 -0.171875,-0.171875 -0.375,-0.257812 -0.605469,-0.257812 H 5.519531 c -0.230469,0 -0.433593,-0.05859 -0.605469,-0.230469 -0.171874,-0.171875 -0.230468,-0.375 -0.230468,-0.605469 v -1.722656 c 0,-0.230469 0.058594,-0.402344 0.230468,-0.574219 0.171876,-0.175781 0.375,-0.261718 0.605469,-0.261718 h 5.429688 c 0.230469,0 0.402343,-0.05469 0.574219,-0.226563 0.171874,-0.175781 0.261718,-0.375 0.261718,-0.605469 z m 0,0"
             id="path312" />
        </g>
      </g>
    </g>
    <g
       fill="#e09336"
       fill-opacity="1"
       id="g326">
      <g
         transform="translate(154.79983,280.28283)"
         id="g324">
        <g
           id="g322">
          <path
             d="m 13.996094,-21.066406 h -1.550782 c -0.230468,0 -0.433593,0.08594 -0.605468,0.257812 -0.171875,0.171875 -0.257813,0.347656 -0.257813,0.574219 v 11.8125 c 0,0.171875 -0.08594,0.289063 -0.230469,0.316406 -0.199218,0.058594 -0.316406,0 -0.371093,-0.171875 l -5.75,-12.300781 C 5.085938,-20.894531 4.828125,-21.066406 4.484375,-21.066406 H 2.269531 c -0.230469,0 -0.429687,0.08594 -0.601562,0.257812 -0.171875,0.171875 -0.230469,0.347656 -0.230469,0.574219 v 19.402344 c 0,0.226562 0.058594,0.429687 0.230469,0.601562 C 1.839844,-0.0585938 2.039062,0 2.269531,0 h 1.554688 c 0.226562,0 0.429687,-0.0585938 0.601562,-0.230469 0.171875,-0.171875 0.257813,-0.375 0.257813,-0.601562 v -11.8125 c 0,-0.171875 0.085937,-0.257813 0.257812,-0.316407 0.175782,-0.03125 0.289063,0.02734 0.347656,0.171876 l 5.746094,12.300781 C 11.179688,-0.144531 11.4375,0 11.785156,0 h 2.210938 c 0.230468,0 0.429687,-0.0859375 0.605468,-0.257812 0.140626,-0.144532 0.226563,-0.347657 0.226563,-0.574219 v -19.402344 c 0,-0.226563 -0.08594,-0.402344 -0.257813,-0.574219 -0.171874,-0.171875 -0.34375,-0.257812 -0.574218,-0.257812 z m 0,0"
             id="path320" />
        </g>
      </g>
    </g>
    <g
       fill="#e09336"
       fill-opacity="1"
       id="g332">
      <g
         transform="translate(171.06346,280.28283)"
         id="g330">
        <g
           id="g328" />
      </g>
    </g>
    <g
       fill="#e09336"
       fill-opacity="1"
       id="g340">
      <g
         transform="translate(179.68376,280.28283)"
         id="g338">
        <g
           id="g336">
          <path
             d="m 11.785156,-18.652344 v -1.582031 c 0,-0.226563 -0.08984,-0.402344 -0.261718,-0.574219 -0.171876,-0.171875 -0.34375,-0.257812 -0.574219,-0.257812 H 2.269531 c -0.230469,0 -0.429687,0.08594 -0.601562,0.257812 -0.171875,0.171875 -0.230469,0.347656 -0.230469,0.574219 v 19.402344 c 0,0.226562 0.058594,0.429687 0.230469,0.601562 C 1.839844,-0.0585938 2.039062,0 2.269531,0 h 8.679688 c 0.230469,0 0.402343,-0.0585938 0.574219,-0.230469 0.171874,-0.171875 0.261718,-0.375 0.261718,-0.601562 v -1.582031 c 0,-0.230469 -0.08984,-0.402344 -0.261718,-0.574219 -0.171876,-0.171875 -0.34375,-0.257813 -0.574219,-0.257813 H 5.519531 c -0.230469,0 -0.433593,-0.058594 -0.605469,-0.230468 -0.171874,-0.171876 -0.230468,-0.375 -0.230468,-0.605469 v -6.265625 c 0,-0.230469 0.058594,-0.402344 0.230468,-0.574219 0.171876,-0.171875 0.375,-0.257813 0.605469,-0.257813 h 3.589844 c 0.230469,0 0.433594,-0.08594 0.605469,-0.257812 0.171875,-0.171875 0.257812,-0.375 0.257812,-0.605469 v -1.550781 c 0,-0.230469 -0.085937,-0.402344 -0.257812,-0.574219 -0.171875,-0.171875 -0.375,-0.257812 -0.605469,-0.257812 H 5.519531 c -0.230469,0 -0.433593,-0.05859 -0.605469,-0.230469 -0.171874,-0.171875 -0.230468,-0.375 -0.230468,-0.605469 v -1.722656 c 0,-0.230469 0.058594,-0.402344 0.230468,-0.574219 0.171876,-0.175781 0.375,-0.261718 0.605469,-0.261718 h 5.429688 c 0.230469,0 0.402343,-0.05469 0.574219,-0.226563 0.171874,-0.175781 0.261718,-0.375 0.261718,-0.605469 z m 0,0"
             id="path334" />
        </g>
      </g>
    </g>
    <g
       fill="#e09336"
       fill-opacity="1"
       id="g348">
      <g
         transform="translate(192.90155,280.28283)"
         id="g346">
        <g
           id="g344">
          <path
             d="m 13.996094,-21.066406 h -1.550782 c -0.230468,0 -0.433593,0.08594 -0.605468,0.257812 -0.171875,0.171875 -0.257813,0.347656 -0.257813,0.574219 v 11.8125 c 0,0.171875 -0.08594,0.289063 -0.230469,0.316406 -0.199218,0.058594 -0.316406,0 -0.371093,-0.171875 l -5.75,-12.300781 C 5.085938,-20.894531 4.828125,-21.066406 4.484375,-21.066406 H 2.269531 c -0.230469,0 -0.429687,0.08594 -0.601562,0.257812 -0.171875,0.171875 -0.230469,0.347656 -0.230469,0.574219 v 19.402344 c 0,0.226562 0.058594,0.429687 0.230469,0.601562 C 1.839844,-0.0585938 2.039062,0 2.269531,0 h 1.554688 c 0.226562,0 0.429687,-0.0585938 0.601562,-0.230469 0.171875,-0.171875 0.257813,-0.375 0.257813,-0.601562 v -11.8125 c 0,-0.171875 0.085937,-0.257813 0.257812,-0.316407 0.175782,-0.03125 0.289063,0.02734 0.347656,0.171876 l 5.746094,12.300781 C 11.179688,-0.144531 11.4375,0 11.785156,0 h 2.210938 c 0.230468,0 0.429687,-0.0859375 0.605468,-0.257812 0.140626,-0.144532 0.226563,-0.347657 0.226563,-0.574219 v -19.402344 c 0,-0.226563 -0.08594,-0.402344 -0.257813,-0.574219 -0.171874,-0.171875 -0.34375,-0.257812 -0.574218,-0.257812 z m 0,0"
             id="path342" />
        </g>
      </g>
    </g>
    <g
       fill="#e09336"
       fill-opacity="1"
       id="g356">
      <g
         transform="translate(209.16518,280.28283)"
         id="g354">
        <g
           id="g352">
          <path
             d="m 11.785156,-18.652344 v -1.582031 c 0,-0.226563 -0.08984,-0.402344 -0.261718,-0.574219 -0.171876,-0.171875 -0.34375,-0.257812 -0.574219,-0.257812 H 2.269531 c -0.230469,0 -0.429687,0.08594 -0.601562,0.257812 -0.171875,0.171875 -0.230469,0.347656 -0.230469,0.574219 v 19.402344 c 0,0.226562 0.058594,0.429687 0.230469,0.601562 C 1.839844,-0.0585938 2.039062,0 2.269531,0 h 8.679688 c 0.230469,0 0.402343,-0.0585938 0.574219,-0.230469 0.171874,-0.171875 0.261718,-0.375 0.261718,-0.601562 v -1.582031 c 0,-0.230469 -0.08984,-0.402344 -0.261718,-0.574219 -0.171876,-0.171875 -0.34375,-0.257813 -0.574219,-0.257813 H 5.519531 c -0.230469,0 -0.433593,-0.058594 -0.605469,-0.230468 -0.171874,-0.171876 -0.230468,-0.375 -0.230468,-0.605469 v -6.265625 c 0,-0.230469 0.058594,-0.402344 0.230468,-0.574219 0.171876,-0.171875 0.375,-0.257813 0.605469,-0.257813 h 3.589844 c 0.230469,0 0.433594,-0.08594 0.605469,-0.257812 0.171875,-0.171875 0.257812,-0.375 0.257812,-0.605469 v -1.550781 c 0,-0.230469 -0.085937,-0.402344 -0.257812,-0.574219 -0.171875,-0.171875 -0.375,-0.257812 -0.605469,-0.257812 H 5.519531 c -0.230469,0 -0.433593,-0.05859 -0.605469,-0.230469 -0.171874,-0.171875 -0.230468,-0.375 -0.230468,-0.605469 v -1.722656 c 0,-0.230469 0.058594,-0.402344 0.230468,-0.574219 0.171876,-0.175781 0.375,-0.261718 0.605469,-0.261718 h 5.429688 c 0.230469,0 0.402343,-0.05469 0.574219,-0.226563 0.171874,-0.175781 0.261718,-0.375 0.261718,-0.605469 z m 0,0"
             id="path350" />
        </g>
      </g>
    </g>
    <g
       fill="#e09336"
       fill-opacity="1"
       id="g364">
      <g
         transform="translate(222.38297,280.28283)"
         id="g362">
        <g
           id="g360">
          <path
             d="M 7.011719,-21.066406 H 2.269531 c -0.230469,0 -0.429687,0.08594 -0.601562,0.257812 -0.171875,0.171875 -0.230469,0.347656 -0.230469,0.574219 v 19.402344 c 0,0.226562 0.058594,0.429687 0.230469,0.601562 C 1.839844,-0.0585938 2.039062,0 2.269531,0 h 1.582031 c 0.230469,0 0.402344,-0.0585938 0.574219,-0.230469 0.171875,-0.171875 0.257813,-0.375 0.257813,-0.601562 v -4.601563 c 0,-0.226562 0.058594,-0.402344 0.230468,-0.574218 0.171876,-0.171876 0.375,-0.257813 0.605469,-0.257813 h 1.148438 c 0.402343,0 0.660156,0.203125 0.804687,0.546875 l 1.867188,5.171875 C 9.457031,-0.171875 9.742188,0 10.144531,0 h 1.640625 c 0.285156,0 0.515625,-0.113281 0.6875,-0.34375 0.171875,-0.230469 0.203125,-0.488281 0.117188,-0.777344 L 10.519531,-6.8125 C 10.375,-7.15625 10.460938,-7.445312 10.75,-7.703125 c 0.632812,-0.601563 1.148438,-1.351563 1.523438,-2.269531 0.371093,-0.890625 0.601562,-1.839844 0.6875,-2.84375 0.08594,-0.980469 0.03125,-1.984375 -0.171876,-2.960938 -0.230468,-0.976562 -0.574218,-1.839844 -1.0625,-2.644531 -0.519531,-0.777344 -1.148437,-1.410156 -1.925781,-1.898437 -0.804687,-0.488282 -1.726562,-0.746094 -2.789062,-0.746094 z m -2.328125,10.71875 v -6.636719 c 0,-0.230469 0.058594,-0.402344 0.230468,-0.574219 0.171876,-0.175781 0.375,-0.261718 0.605469,-0.261718 h 1.550781 c 0.601563,0 1.121094,0.230468 1.523438,0.632812 0.402344,0.402344 0.6875,0.921875 0.890625,1.523438 0.199219,0.632812 0.316406,1.292968 0.316406,2.011718 0,0.71875 -0.117187,1.378906 -0.316406,1.984375 -0.230469,0.632813 -0.515625,1.148438 -0.917969,1.550781 -0.402344,0.402344 -0.921875,0.605469 -1.496094,0.605469 H 5.519531 c -0.230469,0 -0.433593,-0.058593 -0.605469,-0.230469 -0.171874,-0.171874 -0.230468,-0.375 -0.230468,-0.605468 z m 0,0"
             id="path358" />
        </g>
      </g>
    </g>
    <g
       fill="#e09336"
       fill-opacity="1"
       id="g372">
      <g
         transform="translate(236.83633,280.28283)"
         id="g370">
        <g
           id="g368">
          <path
             d="m 18.851562,-10.980469 h -7.15625 c -0.226562,0 -0.429687,0.08984 -0.601562,0.261719 -0.171875,0.171875 -0.230469,0.34375 -0.230469,0.574219 v 1.550781 c 0,0.257812 0.05859,0.460938 0.230469,0.632812 0.171875,0.171876 0.375,0.230469 0.601562,0.230469 h 3.507813 c 0.144531,0 0.257813,0.058594 0.34375,0.171875 0.05859,0.113282 0.08594,0.257813 0.05859,0.402344 -0.285157,0.863281 -0.632813,1.550781 -1.089844,2.070312 -0.460937,0.515626 -0.921875,0.917969 -1.4375,1.207032 -0.519531,0.285156 -1.007813,0.457031 -1.46875,0.515625 -0.488281,0.085937 -0.890625,0.117187 -1.234375,0.117187 -0.460938,0 -1.003906,-0.058594 -1.636719,-0.203125 C 8.105469,-3.59375 7.472656,-3.910156 6.867188,-4.425781 6.265625,-4.914062 5.746094,-5.632812 5.316406,-6.609375 4.886719,-7.558594 4.683594,-8.851562 4.683594,-10.519531 c 0,-1.636719 0.203125,-2.929688 0.632812,-3.90625 0.429688,-0.980469 0.949219,-1.699219 1.550782,-2.214844 0.605468,-0.488281 1.238281,-0.804687 1.871093,-0.949219 0.632813,-0.144531 1.175781,-0.230468 1.636719,-0.230468 0.230469,0 0.515625,0.03125 0.863281,0.05859 0.34375,0.05859 0.6875,0.144531 1.0625,0.257813 0.34375,0.117187 0.71875,0.289062 1.09375,0.519531 0.371094,0.230469 0.71875,0.546875 1.0625,0.917969 0.171875,0.171875 0.34375,0.203125 0.546875,0.08594 l 2.066406,-1.175781 c 0.117188,-0.05859 0.171876,-0.175781 0.203126,-0.289062 0.02734,-0.113282 0,-0.230469 -0.05859,-0.34375 -0.804688,-1.09375 -1.808594,-1.898438 -2.960938,-2.445313 -1.148437,-0.542969 -2.441406,-0.832031 -3.878906,-0.832031 -1.4375,0 -2.757812,0.289062 -3.910156,0.832031 -1.148438,0.546875 -2.125,1.351563 -2.929688,2.445313 -0.691406,0.917968 -1.234375,2.011718 -1.582031,3.21875 -0.34375,1.234374 -0.515625,2.585937 -0.515625,4.050781 0,2.960937 0.6875,5.375 2.097656,7.273437 C 5.171875,-1.0625 7.445312,0 10.375,0 c 1.4375,0 2.730469,-0.257812 3.878906,-0.804688 1.152344,-0.546874 2.15625,-1.351562 2.960938,-2.441406 0.746094,-1.035156 1.292968,-2.1875 1.609375,-3.449218 0.316406,-1.265626 0.488281,-2.53125 0.488281,-3.851563 0,-0.117187 -0.05859,-0.203125 -0.144531,-0.289063 -0.08594,-0.08594 -0.199219,-0.144531 -0.316407,-0.144531 z m 0,0"
             id="path366" />
        </g>
      </g>
    </g>
    <g
       fill="#e09336"
       fill-opacity="1"
       id="g380">
      <g
         transform="translate(257.58251,280.28283)"
         id="g378">
        <g
           id="g376">
          <path
             d="m 6.378906,-6.523438 v 5.691407 c 0,0.226562 0.085938,0.429687 0.261719,0.601562 C 6.8125,-0.0585938 7.011719,0 7.242188,0 h 1.550781 c 0.230469,0 0.402343,-0.0585938 0.578125,-0.230469 0.171875,-0.171875 0.257812,-0.375 0.257812,-0.601562 v -5.691407 l 4.886719,-13.421874 c 0.08594,-0.289063 0.05469,-0.515626 -0.117187,-0.746094 -0.171876,-0.230469 -0.402344,-0.375 -0.691407,-0.375 h -1.636719 c -0.402343,0 -0.6875,0.199218 -0.804687,0.546875 L 8.25,-12.1875 c -0.058594,0.117188 -0.117188,0.144531 -0.230469,0.144531 -0.117187,0 -0.203125,-0.02734 -0.230469,-0.144531 L 4.742188,-20.519531 C 4.597656,-20.867188 4.339844,-21.066406 3.964844,-21.066406 H 2.300781 c -0.289062,0 -0.519531,0.144531 -0.691406,0.375 -0.085937,0.113281 -0.144531,0.230468 -0.144531,0.34375 -0.027344,0.144531 0,0.289062 0.058594,0.402344 z m 0,0"
             id="path374" />
        </g>
      </g>
    </g>
    <g
       fill="#e09336"
       fill-opacity="1"
       id="g386">
      <g
         transform="translate(273.59559,280.28283)"
         id="g384">
        <g
           id="g382" />
      </g>
    </g>
    <g
       fill="#dbd9a6"
       fill-opacity="1"
       id="g394">
      <g
         transform="translate(160.02667,299.35864)"
         id="g392">
        <g
           id="g390">
          <path
             d="M 2.8125,-2.671875 H 5.625 L 4.15625,-5.75 Z M 5.140625,-6.84375 V -6.6875 C 5.054688,-6.6875 5,-6.671875 4.96875,-6.640625 4.945312,-6.609375 4.9375,-6.570312 4.9375,-6.53125 c 0,0.054688 0.019531,0.121094 0.0625,0.203125 0.039062,0.085937 0.097656,0.199219 0.171875,0.34375 l 2.375,4.9375 c 0.101563,0.199219 0.179687,0.359375 0.234375,0.484375 0.0625,0.117188 0.109375,0.195312 0.140625,0.234375 0.050781,0.085937 0.101563,0.136719 0.15625,0.15625 0.050781,0.011719 0.117187,0.015625 0.203125,0.015625 V 0 h -1.8125 v -0.15625 c 0.101562,0 0.171875,-0.015625 0.203125,-0.046875 0.039063,-0.03125 0.0625,-0.078125 0.0625,-0.140625 0,-0.039062 -0.015625,-0.085938 -0.046875,-0.140625 C 6.664062,-0.546875 6.628906,-0.632812 6.578125,-0.75 l -0.5,-1.0625 h -3.6875 l -0.53125,1.234375 c -0.0625,0.136719 -0.09375,0.230469 -0.09375,0.28125 0,0.09375 0.070313,0.140625 0.21875,0.140625 V 0 h -1.59375 v -0.15625 c 0.0625,0 0.109375,-0.003906 0.140625,-0.015625 C 0.570312,-0.179688 0.613281,-0.207031 0.65625,-0.25 0.695312,-0.300781 0.734375,-0.367188 0.765625,-0.453125 0.804688,-0.535156 0.863281,-0.648438 0.9375,-0.796875 L 3.265625,-6 c 0.09375,-0.195312 0.148437,-0.320312 0.171875,-0.375 0.03125,-0.0625 0.046875,-0.113281 0.046875,-0.15625 0,-0.039062 -0.027344,-0.078125 -0.078125,-0.109375 C 3.363281,-6.671875 3.3125,-6.6875 3.25,-6.6875 v -0.15625 z m 0,0"
             id="path388" />
        </g>
      </g>
    </g>
    <g
       fill="#dbd9a6"
       fill-opacity="1"
       id="g402">
      <g
         transform="translate(168.69501,299.35864)"
         id="g400">
        <g
           id="g398">
          <path
             d="M 2.671875,-5.71875 V -5.5625 C 2.535156,-5.5625 2.445312,-5.539062 2.40625,-5.5 2.375,-5.457031 2.359375,-5.363281 2.359375,-5.21875 v 4.484375 H 6.4375 c 0.113281,0 0.195312,-0.023437 0.25,-0.078125 0.050781,-0.050781 0.078125,-0.15625 0.078125,-0.3125 h 0.15625 V 0.28125 H 6.765625 C 6.765625,0.164062 6.738281,0.0859375 6.6875,0.046875 6.632812,0.015625 6.550781,0 6.4375,0 H 1.21875 v -0.15625 c 0.144531,0 0.234375,-0.019531 0.265625,-0.0625 0.039063,-0.050781 0.0625,-0.148438 0.0625,-0.296875 V -5.21875 c 0,-0.144531 -0.023437,-0.238281 -0.0625,-0.28125 C 1.441406,-5.539062 1.351562,-5.5625 1.21875,-5.5625 v -0.15625 z m 0,0"
             id="path396" />
        </g>
      </g>
    </g>
    <g
       fill="#dbd9a6"
       fill-opacity="1"
       id="g410">
      <g
         transform="translate(175.9208,299.35864)"
         id="g408">
        <g
           id="g406">
          <path
             d="m 1.8125,-5.71875 v 0.15625 c -0.25,0 -0.375,0.046875 -0.375,0.140625 0,0.03125 0.00781,0.074219 0.03125,0.125 C 1.5,-5.242188 1.535156,-5.164062 1.578125,-5.0625 L 3.125,-1.25 H 3.140625 L 4.5625,-5.140625 c 0.050781,-0.132813 0.078125,-0.226563 0.078125,-0.28125 0,-0.039063 -0.023437,-0.070313 -0.0625,-0.09375 C 4.546875,-5.546875 4.476562,-5.5625 4.375,-5.5625 v -0.15625 h 1.546875 v 0.15625 c -0.074219,0 -0.136719,0.00781 -0.1875,0.015625 -0.054687,0.011719 -0.078125,0.042969 -0.078125,0.09375 0,0.042969 0.00781,0.09375 0.03125,0.15625 0.03125,0.054687 0.066406,0.140625 0.109375,0.265625 L 7.203125,-1.25 h 0.03125 L 8.46875,-4.765625 C 8.539062,-4.992188 8.585938,-5.144531 8.609375,-5.21875 8.628906,-5.289062 8.640625,-5.347656 8.640625,-5.390625 8.640625,-5.503906 8.53125,-5.5625 8.3125,-5.5625 v -0.15625 h 1.46875 v 0.15625 c -0.148438,0 -0.246094,0.027344 -0.296875,0.078125 C 9.441406,-5.429688 9.394531,-5.332031 9.34375,-5.1875 l -1.5,4.296875 c -0.054688,0.148437 -0.09375,0.261719 -0.125,0.34375 -0.03125,0.085937 -0.046875,0.15625 -0.046875,0.21875 0,0.117187 0.085937,0.171875 0.265625,0.171875 V 0 H 6.53125 v -0.15625 c 0.125,0 0.203125,-0.007812 0.234375,-0.03125 C 6.796875,-0.21875 6.8125,-0.25 6.8125,-0.28125 6.8125,-0.320312 6.789062,-0.398438 6.75,-0.515625 6.707031,-0.628906 6.675781,-0.703125 6.65625,-0.734375 L 5.125,-4.65625 H 5.09375 L 3.671875,-0.609375 C 3.617188,-0.460938 3.59375,-0.363281 3.59375,-0.3125 c 0,0.054688 0.019531,0.09375 0.0625,0.125 0.050781,0.023438 0.101562,0.03125 0.15625,0.03125 H 3.890625 V 0 H 2.375 v -0.15625 c 0.132812,0 0.21875,-0.007812 0.25,-0.03125 0.03125,-0.03125 0.046875,-0.070312 0.046875,-0.125 0,-0.019531 -0.015625,-0.054688 -0.046875,-0.109375 -0.023438,-0.050781 -0.054688,-0.132813 -0.09375,-0.25 L 0.703125,-5.21875 c -0.0625,-0.15625 -0.125,-0.25 -0.1875,-0.28125 -0.054687,-0.039062 -0.117187,-0.0625 -0.1875,-0.0625 v -0.15625 z m 0,0"
             id="path404" />
        </g>
      </g>
    </g>
    <g
       fill="#dbd9a6"
       fill-opacity="1"
       id="g418">
      <g
         transform="translate(186.0317,299.35864)"
         id="g416">
        <g
           id="g414">
          <path
             d="m 2.265625,-2.421875 h 2.53125 l -1.3125,-2.71875 z M 4.5625,-5.71875 v 0.15625 c -0.074219,0 -0.140625,0.015625 -0.203125,0.046875 -0.0625,0.023437 -0.09375,0.058594 -0.09375,0.109375 0,0.042969 0.00781,0.085938 0.03125,0.125 0.019531,0.042969 0.039063,0.089844 0.0625,0.140625 L 6.5625,-0.4375 c 0.039062,0.09375 0.085938,0.167969 0.140625,0.21875 0.0625,0.042969 0.15625,0.0625 0.28125,0.0625 V 0 H 5.34375 v -0.15625 c 0.15625,0 0.257812,-0.007812 0.3125,-0.03125 0.050781,-0.03125 0.078125,-0.070312 0.078125,-0.125 0,-0.0625 -0.011719,-0.117188 -0.03125,-0.171875 -0.023437,-0.0625 -0.054687,-0.125 -0.09375,-0.1875 L 5.125,-1.6875 H 1.96875 L 1.515625,-0.703125 C 1.460938,-0.585938 1.421875,-0.5 1.390625,-0.4375 c -0.023437,0.054688 -0.03125,0.09375 -0.03125,0.125 0,0.042969 0.019531,0.078125 0.0625,0.109375 0.039063,0.03125 0.132813,0.046875 0.28125,0.046875 V 0 H 0.25 v -0.15625 c 0.15625,0 0.253906,-0.039062 0.296875,-0.125 C 0.597656,-0.363281 0.664062,-0.5 0.75,-0.6875 L 2.609375,-4.953125 C 2.679688,-5.097656 2.726562,-5.195312 2.75,-5.25 c 0.019531,-0.050781 0.03125,-0.101562 0.03125,-0.15625 0,-0.03125 -0.027344,-0.066406 -0.078125,-0.109375 -0.042969,-0.039063 -0.125,-0.066406 -0.25,-0.078125 v -0.125 z m 0,0"
             id="path412" />
        </g>
      </g>
    </g>
    <g
       fill="#dbd9a6"
       fill-opacity="1"
       id="g426">
      <g
         transform="translate(193.25749,299.35864)"
         id="g424">
        <g
           id="g422">
          <path
             d="m 1.796875,-5.71875 v 0.15625 c -0.117187,0 -0.1875,0.011719 -0.21875,0.03125 -0.03125,0.023438 -0.046875,0.054688 -0.046875,0.09375 0,0.042969 0.015625,0.085938 0.046875,0.125 0.03125,0.042969 0.070313,0.101562 0.125,0.171875 l 1.4375,2.0625 L 4.8125,-5.1875 c 0.0625,-0.070312 0.097656,-0.125 0.109375,-0.15625 0.019531,-0.039062 0.03125,-0.070312 0.03125,-0.09375 0,-0.050781 -0.015625,-0.082031 -0.046875,-0.09375 C 4.875,-5.550781 4.804688,-5.5625 4.703125,-5.5625 V -5.71875 H 6.3125 V -5.5625 C 6.207031,-5.550781 6.125,-5.53125 6.0625,-5.5 6,-5.46875 5.90625,-5.375 5.78125,-5.21875 l -2.25,2.859375 v 1.828125 c 0,0.15625 0.019531,0.261719 0.0625,0.3125 0.039062,0.042969 0.128906,0.0625 0.265625,0.0625 V 0 H 2.40625 v -0.15625 c 0.125,0 0.195312,-0.023438 0.21875,-0.078125 0.03125,-0.0625 0.046875,-0.164063 0.046875,-0.3125 v -1.8125 L 0.71875,-5.1875 C 0.550781,-5.4375 0.375,-5.5625 0.1875,-5.5625 v -0.15625 z m 0,0"
             id="path420" />
        </g>
      </g>
    </g>
    <g
       fill="#dbd9a6"
       fill-opacity="1"
       id="g434">
      <g
         transform="translate(199.7555,299.35864)"
         id="g432">
        <g
           id="g430">
          <path
             d="m 3.4375,-5.796875 c 0.394531,0 0.738281,0.03125 1.03125,0.09375 0.289062,0.0625 0.539062,0.136719 0.75,0.21875 0.125,0.042969 0.222656,0.078125 0.296875,0.109375 0.082031,0.03125 0.140625,0.046875 0.171875,0.046875 0.039062,0 0.078125,-0.00781 0.109375,-0.03125 0.03125,-0.019531 0.066406,-0.070313 0.109375,-0.15625 l 0.171875,0.0625 -0.484375,1.28125 -0.15625,-0.0625 c 0.00781,-0.050781 0.015625,-0.101563 0.015625,-0.15625 0,-0.070313 -0.058594,-0.144531 -0.171875,-0.21875 C 5.164062,-4.691406 5.007812,-4.765625 4.8125,-4.828125 4.625,-4.898438 4.40625,-4.957031 4.15625,-5 3.90625,-5.039062 3.648438,-5.0625 3.390625,-5.0625 2.867188,-5.0625 2.46875,-4.984375 2.1875,-4.828125 1.914062,-4.679688 1.78125,-4.4375 1.78125,-4.09375 c 0,0.292969 0.160156,0.496094 0.484375,0.609375 0.320313,0.117187 0.84375,0.195313 1.5625,0.234375 0.382813,0.023438 0.738281,0.058594 1.0625,0.109375 0.320313,0.054687 0.597656,0.136719 0.828125,0.25 0.238281,0.105469 0.421875,0.246094 0.546875,0.421875 0.125,0.179688 0.1875,0.414062 0.1875,0.703125 0,0.617187 -0.226563,1.078125 -0.671875,1.390625 C 5.332031,-0.0703125 4.609375,0.078125 3.609375,0.078125 3.390625,0.078125 3.164062,0.0625 2.9375,0.03125 2.71875,0 2.507812,-0.0390625 2.3125,-0.09375 2.1875,-0.113281 2.054688,-0.144531 1.921875,-0.1875 1.796875,-0.238281 1.679688,-0.28125 1.578125,-0.3125 1.472656,-0.351562 1.375,-0.390625 1.28125,-0.421875 1.195312,-0.453125 1.132812,-0.46875 1.09375,-0.46875 c -0.117188,0 -0.195312,0.070312 -0.234375,0.203125 l -0.15625,-0.0625 0.5,-1.3125 0.15625,0.046875 C 1.347656,-1.539062 1.34375,-1.488281 1.34375,-1.4375 c 0,0.085938 0.066406,0.171875 0.203125,0.265625 0.132813,0.085937 0.316406,0.167969 0.546875,0.25 0.226562,0.074219 0.484375,0.136719 0.765625,0.1875 0.28125,0.054687 0.578125,0.078125 0.890625,0.078125 0.582031,0 1.039062,-0.078125 1.375,-0.234375 0.34375,-0.15625 0.515625,-0.382813 0.515625,-0.6875 C 5.640625,-1.742188 5.59375,-1.878906 5.5,-1.984375 5.40625,-2.097656 5.269531,-2.1875 5.09375,-2.25 4.914062,-2.320312 4.707031,-2.367188 4.46875,-2.390625 4.226562,-2.421875 3.960938,-2.445312 3.671875,-2.46875 3.335938,-2.5 3.007812,-2.53125 2.6875,-2.5625 2.363281,-2.601562 2.070312,-2.675781 1.8125,-2.78125 c -0.25,-0.101562 -0.453125,-0.25 -0.609375,-0.4375 -0.15625,-0.1875 -0.234375,-0.441406 -0.234375,-0.765625 0,-0.320313 0.0625,-0.597656 0.1875,-0.828125 0.132812,-0.226562 0.316406,-0.414062 0.546875,-0.5625 0.226563,-0.15625 0.488281,-0.265625 0.78125,-0.328125 0.300781,-0.0625 0.617187,-0.09375 0.953125,-0.09375 z m 0,0"
             id="path428" />
        </g>
      </g>
    </g>
    <g
       fill="#dbd9a6"
       fill-opacity="1"
       id="g440">
      <g
         transform="translate(206.98129,299.35864)"
         id="g438">
        <g
           id="g436" />
      </g>
    </g>
    <g
       fill="#dbd9a6"
       fill-opacity="1"
       id="g448">
      <g
         transform="translate(210.95806,299.35864)"
         id="g446">
        <g
           id="g444">
          <path
             d="m 1.921875,-3.421875 c 0,0.824219 0.242187,1.464844 0.734375,1.921875 0.488281,0.460938 1.164062,0.6875 2.03125,0.6875 0.875,0 1.554688,-0.222656 2.046875,-0.671875 0.488281,-0.457031 0.734375,-1.101563 0.734375,-1.9375 0,-0.8125 -0.246094,-1.445313 -0.734375,-1.90625 C 6.253906,-5.796875 5.570312,-6.03125 4.6875,-6.03125 c -0.875,0 -1.558594,0.234375 -2.046875,0.703125 -0.480469,0.460937 -0.71875,1.09375 -0.71875,1.90625 z m 2.765625,-3.5 c 0.570312,0 1.097656,0.078125 1.578125,0.234375 C 6.753906,-6.53125 7.164062,-6.300781 7.5,-6 c 0.34375,0.304688 0.613281,0.671875 0.8125,1.109375 0.195312,0.429687 0.296875,0.917969 0.296875,1.46875 0,0.542969 -0.09375,1.03125 -0.28125,1.46875 C 8.140625,-1.523438 7.875,-1.160156 7.53125,-0.859375 7.1875,-0.554688 6.773438,-0.320312 6.296875,-0.15625 5.816406,0 5.28125,0.078125 4.6875,0.078125 c -0.585938,0 -1.121094,-0.08203125 -1.609375,-0.25 C 2.597656,-0.335938 2.1875,-0.570312 1.84375,-0.875 1.507812,-1.175781 1.25,-1.539062 1.0625,-1.96875 0.875,-2.394531 0.78125,-2.878906 0.78125,-3.421875 0.78125,-3.972656 0.875,-4.460938 1.0625,-4.890625 1.257812,-5.328125 1.53125,-5.695312 1.875,-6 2.21875,-6.300781 2.628906,-6.53125 3.109375,-6.6875 3.585938,-6.84375 4.113281,-6.921875 4.6875,-6.921875 Z m 0,0"
             id="path442" />
        </g>
      </g>
    </g>
    <g
       fill="#dbd9a6"
       fill-opacity="1"
       id="g456">
      <g
         transform="translate(220.34119,299.35864)"
         id="g454">
        <g
           id="g452">
          <path
             d="m 3.09375,-5.71875 v 0.15625 c -0.136719,0 -0.230469,0.011719 -0.28125,0.03125 -0.042969,0.023438 -0.0625,0.046875 -0.0625,0.078125 0,0.03125 0.00781,0.070313 0.03125,0.109375 0.03125,0.03125 0.097656,0.105469 0.203125,0.21875 l 3.421875,3.9375 v -4.015625 c 0,-0.132813 -0.023438,-0.226563 -0.0625,-0.28125 C 6.300781,-5.535156 6.207031,-5.5625 6.0625,-5.5625 v -0.15625 h 1.421875 v 0.15625 c -0.136719,0 -0.230469,0.027344 -0.28125,0.078125 -0.042969,0.042969 -0.0625,0.136719 -0.0625,0.28125 v 4.671875 c 0,0.148438 0.019531,0.246094 0.0625,0.296875 0.039063,0.054687 0.132813,0.078125 0.28125,0.078125 V 0 H 5.75 v -0.15625 c 0.125,0 0.210938,-0.003906 0.265625,-0.015625 0.0625,-0.007813 0.09375,-0.039063 0.09375,-0.09375 0,-0.03125 -0.011719,-0.0625 -0.03125,-0.09375 C 6.066406,-0.390625 6.023438,-0.4375 5.953125,-0.5 L 2.28125,-4.703125 v 4.171875 c 0,0.148438 0.019531,0.246094 0.0625,0.296875 0.039062,0.054687 0.132812,0.078125 0.28125,0.078125 V 0 H 1.203125 v -0.15625 c 0.132813,0 0.222656,-0.019531 0.265625,-0.0625 0.050781,-0.050781 0.078125,-0.148438 0.078125,-0.296875 V -5.1875 c 0,-0.144531 -0.023437,-0.242188 -0.0625,-0.296875 C 1.441406,-5.535156 1.347656,-5.5625 1.203125,-5.5625 v -0.15625 z m 0,0"
             id="path450" />
        </g>
      </g>
    </g>
  </g>
</svg>
